/* XPM */
static char * background_entity_xpm[] = {
"64 64 118 2",
"  	c #55A666",
". 	c #56A666",
"+ 	c #57A566",
"@ 	c #54A668",
"# 	c #56A567",
"$ 	c #57A564",
"% 	c #57A464",
"& 	c #56A464",
"* 	c #54A464",
"= 	c #56A566",
"- 	c #57A668",
"; 	c #55A568",
"> 	c #55A668",
", 	c #55A667",
"' 	c #58A567",
") 	c #57A665",
"! 	c #54A565",
"~ 	c #55A566",
"{ 	c #56A667",
"] 	c #5BAB6C",
"^ 	c #61B073",
"/ 	c #5FAF70",
"( 	c #58A969",
"_ 	c #59A96A",
": 	c #59AA6A",
"< 	c #58A869",
"[ 	c #53A464",
"} 	c #5BA96B",
"| 	c #62B373",
"1 	c #6FBC80",
"2 	c #65B375",
"3 	c #529E61",
"4 	c #66B677",
"5 	c #71BE82",
"6 	c #6FBE81",
"7 	c #6ABA7C",
"8 	c #54A366",
"9 	c #6BB87C",
"0 	c #6FBD81",
"a 	c #5DA86D",
"b 	c #247237",
"c 	c #28773B",
"d 	c #54A265",
"e 	c #55A565",
"f 	c #65B676",
"g 	c #6EBE7F",
"h 	c #6FBE80",
"i 	c #6DBD7E",
"j 	c #55A768",
"k 	c #6AB87C",
"l 	c #55A165",
"m 	c #257237",
"n 	c #2E7940",
"o 	c #55A066",
"p 	c #57A467",
"q 	c #408D50",
"r 	c #388348",
"s 	c #539E64",
"t 	c #6DBC7F",
"u 	c #70BE81",
"v 	c #56A769",
"w 	c #5BAA6D",
"x 	c #55A266",
"y 	c #56A166",
"z 	c #67B177",
"A 	c #6BB67A",
"B 	c #6BB97C",
"C 	c #5DAB6D",
"D 	c #52A263",
"E 	c #54A566",
"F 	c #58A269",
"G 	c #4A955C",
"H 	c #39834A",
"I 	c #58A168",
"J 	c #70BD80",
"K 	c #56A669",
"L 	c #55A467",
"M 	c #5CAA6E",
"N 	c #6AB77C",
"O 	c #72BE83",
"P 	c #73BF84",
"Q 	c #66B277",
"R 	c #59AA6B",
"S 	c #52A363",
"T 	c #58A36A",
"U 	c #4E975F",
"V 	c #3F8950",
"W 	c #428A52",
"X 	c #68B379",
"Y 	c #65B376",
"Z 	c #74C085",
"` 	c #71BD81",
" .	c #5DA76D",
"..	c #4D975D",
"+.	c #52A161",
"@.	c #57A168",
"#.	c #59A46A",
"$.	c #54A568",
"%.	c #66B377",
"&.	c #69B378",
"*.	c #267339",
"=.	c #307D40",
"-.	c #4C9B5B",
";.	c #60AB70",
">.	c #247336",
",.	c #267538",
"'.	c #54A264",
").	c #55A665",
"!.	c #54A363",
"~.	c #4E9D5E",
"{.	c #54A665",
"].	c #52A463",
"^.	c #58A566",
"/.	c #57A565",
"(.	c #56A465",
"_.	c #56A565",
":.	c #54A667",
"<.	c #54A666",
"                                                                                                                                ",
"                                                                                                                                ",
"                                                                                                                                ",
"                                                                                  . + + + @ @ # + $ % & * = - ; > ;             ",
"                                                                                    . . . , , . + ' ) .       , , ,             ",
"                                                                                                                                ",
"                                                                                                                                ",
"                                                                                                    !                           ",
"                                                                                                    ! ~                         ",
"                                                                                                ! { ] ^ /                       ",
"                                                                                      ( _ : < [ ~ } | 1 2 3 ~                   ",
"                                                                                      4 5 6 7 # 8 9 0 a b c d                   ",
"                                  !                                                   e f g h i j k l m n o p .                 ",
"                                    [ ~                                               q r s t u v w x y z A B C                 ",
"                                  D ~ E                                           # F G H H I J K L M N O P Q R                 ",
"                                  S ! !                                           # T F U V W X ; L Y Z `  ...+.                ",
"                                                                                  # T T T T @.#.> $.%.1 &.*.=.-.                ",
"                                                                                    # # # # # # ,   2 ;.>.,.'.[                 ",
"                                                                                                      [ ).e   !                 ",
"                                                                                                        ! !                     ",
"                                    .                                                                                           ",
"                                    . .                                                                                         ",
"                                    . .                                                                                         ",
"                                    .                                                                                           ",
"                                                                                                                                ",
"                                                                                                                                ",
"                                                                                                                                ",
"                                  ! !                                                                                           ",
"                                  !                                                                                             ",
"                                  !                                                                                             ",
"                                    !.{                                                                                         ",
"                                  ~.! !                                                                                         ",
"                                  ! {.                                                                                          ",
"                                  [ [                                                                                           ",
"                                  [ S !                                                                                         ",
"                                                                                                                                ",
"                                                                                                                                ",
"                                                                                                                                ",
"                                  ! !                                                                                           ",
"                                  {.!                                                                                           ",
"                                  ~ ].!                                                                                         ",
"                                  ! S !                                                                                         ",
"                                    S !                                                                                         ",
"                                          # ^./.+ (.(.(._.:.<.:.                                                                ",
"                                                                                                                                ",
"                                                                                                                                ",
"                                                                                                                                ",
"                                                                                                                                ",
"                                                                                                                                ",
"                                                                                                                                ",
"                                                                                                                                ",
"                                                                                                                                ",
"                                                                                                                                ",
"                                                                                                                                ",
"                                                                                                                                ",
"                                                                                                                                ",
"                                                                                                                                ",
"                                                                                                                                ",
"                                                                                                                                ",
"                                                                                                                                ",
"                                                                                                                                ",
"                                                                                                                                ",
"                                                                                                                                ",
"                                                                                                                                "};
