/* XPM */
static char * exit1_xpm[] = {
"64 64 715 2",
"  	c #55A666",
". 	c #6A3C26",
"+ 	c #683921",
"@ 	c #683A21",
"# 	c #683920",
"$ 	c #67381F",
"% 	c #66381F",
"& 	c #653923",
"* 	c #6E4836",
"= 	c #896B5F",
"- 	c #6C3E24",
"; 	c #734528",
"> 	c #774A2D",
", 	c #77492C",
"' 	c #6A3B1E",
") 	c #653418",
"! 	c #673519",
"~ 	c #6B391B",
"{ 	c #6D3C1C",
"] 	c #704021",
"^ 	c #734628",
"/ 	c #6D3D21",
"( 	c #67371B",
"_ 	c #714426",
": 	c #764A2D",
"< 	c #75492D",
"[ 	c #73482D",
"} 	c #714934",
"| 	c #9A8079",
"1 	c #7F583A",
"2 	c #A4845F",
"3 	c #B79A72",
"4 	c #B4976F",
"5 	c #A58560",
"6 	c #815A3C",
"7 	c #6E3D1C",
"8 	c #814E24",
"9 	c #8C5728",
"0 	c #9A7045",
"a 	c #A8855E",
"b 	c #8B6646",
"c 	c #653519",
"d 	c #714327",
"e 	c #A07F5C",
"f 	c #B69A72",
"g 	c #B29670",
"h 	c #846447",
"i 	c #8A6E65",
"j 	c #7F5433",
"k 	c #A37C52",
"l 	c #B59062",
"m 	c #B79366",
"n 	c #BE9D71",
"o 	c #B5966D",
"p 	c #71401D",
"q 	c #8B5728",
"r 	c #99632D",
"s 	c #AB8152",
"t 	c #BC9B6E",
"u 	c #977452",
"v 	c #714124",
"w 	c #9E784F",
"x 	c #B69163",
"y 	c #BD9B6E",
"z 	c #C6AA7E",
"A 	c #907252",
"B 	c #85675D",
"C 	c #784824",
"D 	c #936234",
"E 	c #A16F3C",
"F 	c #A57747",
"G 	c #B5946B",
"H 	c #8C6848",
"I 	c #8C5828",
"J 	c #9A642E",
"K 	c #AD8354",
"L 	c #BE9D70",
"M 	c #997654",
"N 	c #6E3C1E",
"O 	c #905E33",
"P 	c #A1703E",
"Q 	c #B28959",
"R 	c #C6A87C",
"S 	c #937454",
"T 	c #87685E",
"U 	c #764420",
"V 	c #8F5A2A",
"W 	c #9A652F",
"X 	c #A06E3C",
"Y 	c #B28B5E",
"Z 	c #B49369",
"` 	c #774B2A",
" .	c #9C7246",
"..	c #AF8352",
"+.	c #BA9566",
"@.	c #C1A275",
"#.	c #6D3B1B",
"$.	c #8B5729",
"%.	c #9B6631",
"&.	c #AF8353",
"*.	c #C5A77A",
"=.	c #8A6A61",
"-.	c #8F592A",
";.	c #B28B5D",
">.	c #805B3E",
",.	c #B2946C",
"'.	c #CAAD80",
").	c #CCB083",
"!.	c #C5A87D",
"~.	c #8A5628",
"{.	c #9B6530",
"].	c #947454",
"^.	c #8C6B62",
"/.	c #6D4227",
"(.	c #7F5B3E",
"_.	c #896749",
":.	c #896849",
"<.	c #856244",
"[.	c #754B2F",
"}.	c #8E6948",
"|.	c #713F1E",
"1.	c #7A4722",
"2.	c #7D4B25",
"3.	c #774724",
"4.	c #673D21",
"5.	c #603A22",
"6.	c #633D26",
"7.	c #664029",
"8.	c #68432B",
"9.	c #69442C",
"0.	c #6A452C",
"a.	c #69452C",
"b.	c #68452C",
"c.	c #66442C",
"d.	c #65432C",
"e.	c #63422B",
"f.	c #62402A",
"g.	c #603F29",
"h.	c #5D3D28",
"i.	c #5C3B26",
"j.	c #5A3A25",
"k.	c #593824",
"l.	c #573724",
"m.	c #563623",
"n.	c #543521",
"o.	c #533320",
"p.	c #523220",
"q.	c #513220",
"r.	c #50311E",
"s.	c #50301E",
"t.	c #4F301D",
"u.	c #4E2F1D",
"v.	c #4D2F1D",
"w.	c #4D2F1C",
"x.	c #4D2E1C",
"y.	c #4B2D1C",
"z.	c #4B2D1B",
"A.	c #4B2C1A",
"B.	c #492A18",
"C.	c #4F2B17",
"D.	c #67391B",
"E.	c #906B49",
"F.	c #804E24",
"G.	c #925D2B",
"H.	c #95612D",
"I.	c #875729",
"J.	c #5C3C22",
"K.	c #382D23",
"L.	c #42372C",
"M.	c #4A3F32",
"N.	c #504537",
"O.	c #54493A",
"P.	c #564C3C",
"Q.	c #574D3D",
"R.	c #554B3C",
"S.	c #52493A",
"T.	c #4F4739",
"U.	c #4C4437",
"V.	c #494034",
"W.	c #463D31",
"X.	c #433A2E",
"Y.	c #3F362D",
"Z.	c #3C342B",
"`.	c #393028",
" +	c #362D26",
".+	c #332B23",
"++	c #302922",
"@+	c #2E2620",
"#+	c #2C231D",
"$+	c #2A211D",
"%+	c #29201B",
"&+	c #271E1A",
"*+	c #251D19",
"=+	c #241C18",
"-+	c #241B17",
";+	c #231A16",
">+	c #221916",
",+	c #211915",
"'+	c #211815",
")+	c #211714",
"!+	c #201714",
"~+	c #341F15",
"{+	c #5F361A",
"]+	c #916B49",
"^+	c #835125",
"/+	c #95612C",
"(+	c #8A5A2A",
"_+	c #5A3D22",
":+	c #2D2A24",
"<+	c #39362E",
"[+	c #433F35",
"}+	c #4A4639",
"|+	c #4E4A3D",
"1+	c #514D3F",
"2+	c #534F40",
"3+	c #534E3F",
"4+	c #514D3E",
"5+	c #4F4B3D",
"6+	c #4C483B",
"7+	c #484539",
"8+	c #454237",
"9+	c #413E33",
"0+	c #3E3A30",
"a+	c #35342C",
"b+	c #32302A",
"c+	c #2F2D27",
"d+	c #2B2A24",
"e+	c #282822",
"f+	c #252520",
"g+	c #23221E",
"h+	c #211F1E",
"i+	c #1F1E1C",
"j+	c #1E1C1A",
"k+	c #1B1A19",
"l+	c #191918",
"m+	c #181817",
"n+	c #171715",
"o+	c #161615",
"p+	c #151514",
"q+	c #141414",
"r+	c #141313",
"s+	c #131313",
"t+	c #2E1D15",
"u+	c #5E351A",
"v+	c #96612C",
"w+	c #2C2A24",
"x+	c #524E3F",
"y+	c #3D3A30",
"z+	c #1D1C1A",
"A+	c #835025",
"B+	c #95602C",
"C+	c #8F6A49",
"D+	c #794824",
"E+	c #86552B",
"F+	c #8C5A2C",
"G+	c #835429",
"H+	c #583B22",
"I+	c #B28A5D",
"J+	c #B19268",
"K+	c #886B4F",
"L+	c #6F574C",
"M+	c #7D6A5F",
"N+	c #7A6458",
"O+	c #654B3B",
"P+	c #412E21",
"Q+	c #2E2B24",
"R+	c #AD8559",
"S+	c #A38461",
"T+	c #8C7B6F",
"U+	c #AAA5A4",
"V+	c #C3C2C2",
"W+	c #B8B6B5",
"X+	c #8E8884",
"Y+	c #584B44",
"Z+	c #362D24",
"`+	c #A98256",
" @	c #998064",
".@	c #9F9A98",
"+@	c #DEDEDD",
"@@	c #FAFAFA",
"#@	c #EEEEEE",
"$@	c #BBB8B7",
"%@	c #6F635F",
"&@	c #3D2E24",
"*@	c #8D6C63",
"=@	c #A98155",
"-@	c #998167",
";@	c #A8A4A3",
">@	c #E7E7E7",
",@	c #FFFFFF",
"'@	c #F2F2F2",
")@	c #C0BEBD",
"!@	c #736965",
"~@	c #8D6D63",
"{@	c #977F64",
"]@	c #A09B9A",
"^@	c #DEDEDE",
"/@	c #ECECEC",
"(@	c #B8B5B4",
"_@	c #6E625F",
":@	c #957C61",
"<@	c #8A8583",
"[@	c #BDBDBD",
"}@	c #E0E0E0",
"|@	c #D3D3D3",
"1@	c #9E9B9A",
"2@	c #695C58",
"3@	c #957C60",
"4@	c #837E7C",
"5@	c #B0B0B0",
"6@	c #D5D5D5",
"7@	c #CBCBCB",
"8@	c #979392",
"9@	c #807A78",
"0@	c #A2A2A2",
"a@	c #BEBEBE",
"b@	c #B4B4B4",
"c@	c #8D8988",
"d@	c #967E62",
"e@	c #7E7775",
"f@	c #7A7A7A",
"g@	c #636363",
"h@	c #717171",
"i@	c #7F7B7A",
"j@	c #6B5E5B",
"k@	c #998166",
"l@	c #8F8885",
"m@	c #949392",
"n@	c #7C7C7C",
"o@	c #898887",
"p@	c #938D8B",
"q@	c #726560",
"r@	c #A98255",
"s@	c #997D5F",
"t@	c #90827C",
"u@	c #AFA7A4",
"v@	c #B4B0AE",
"w@	c #AFA9A6",
"x@	c #9A8E89",
"y@	c #6B5951",
"z@	c #AC8357",
"A@	c #997954",
"B@	c #705241",
"C@	c #86736C",
"D@	c #9C8D87",
"E@	c #907F78",
"F@	c #6D5449",
"G@	c #4A2D1B",
"H@	c #3A2E24",
"I@	c #B0885B",
"J@	c #A98A62",
"K@	c #78593C",
"L@	c #512A11",
"M@	c #512912",
"N@	c #532B12",
"O@	c #502C15",
"P@	c #40291B",
"Q@	c #322C24",
"R@	c #B39369",
"S@	c #896848",
"T@	c #65391A",
"U@	c #6D401D",
"V@	c #72451F",
"W@	c #6D4420",
"X@	c #4B321F",
"Y@	c #2D2B24",
"Z@	c #7E4C23",
"`@	c #8E5A2A",
" #	c #945F2C",
".#	c #88582A",
"+#	c #3A372E",
"@#	c #454035",
"##	c #4B4639",
"$#	c #524D3F",
"%#	c #5B3D22",
"&#	c #382F25",
"*#	c #4E4031",
"=#	c #5D4B3B",
"-#	c #625140",
";#	c #615240",
">#	c #5B5140",
",#	c #555040",
"'#	c #8B5A2A",
")#	c #624126",
"!#	c #544438",
"~#	c #736659",
"{#	c #8B7F72",
"]#	c #908476",
"^#	c #827565",
"/#	c #6F6250",
"(#	c #605644",
"_#	c #575040",
":#	c #8D5C2D",
"<#	c #6F523B",
"[#	c #7B736B",
"}#	c #ACA79F",
"|#	c #CAC7BD",
"1#	c #CCC8BD",
"2#	c #B3AFA2",
"3#	c #8F8779",
"4#	c #726755",
"5#	c #605544",
"6#	c #554F40",
"7#	c #524D3E",
"8#	c #8C6C63",
"9#	c #906239",
"0#	c #806C5E",
"a#	c #9E9B96",
"b#	c #D2D0C9",
"c#	c #EBE9DF",
"d#	c #EAE8DC",
"e#	c #D4D0C4",
"f#	c #ACA79B",
"g#	c #867E6F",
"h#	c #6C614F",
"i#	c #5A5241",
"j#	c #524E3E",
"k#	c #987050",
"l#	c #988A80",
"m#	c #B1AFAA",
"n#	c #DAD8D0",
"o#	c #EDEBE1",
"p#	c #EBE9DD",
"q#	c #D8D5C8",
"r#	c #B7B3A7",
"s#	c #979284",
"t#	c #7B7162",
"u#	c #625846",
"v#	c #544E3F",
"w#	c #A48168",
"x#	c #B1A69F",
"y#	c #B8B7B2",
"z#	c #D1CEC7",
"A#	c #E8E5DB",
"B#	c #E5E3D7",
"C#	c #CFCBBF",
"D#	c #B2ADA1",
"E#	c #9F9B8E",
"F#	c #898172",
"G#	c #6A5F4F",
"H#	c #564F3F",
"I#	c #A7856D",
"J#	c #B7AEA6",
"K#	c #BEBDB8",
"L#	c #D0CDC5",
"M#	c #D7D4CB",
"N#	c #C9C6BB",
"O#	c #B5B0A5",
"P#	c #A5A093",
"Q#	c #A29D90",
"R#	c #918B7C",
"S#	c #6F6554",
"T#	c #504B3D",
"U#	c #A8856E",
"V#	c #B7ACA5",
"W#	c #C1BFBB",
"X#	c #D6D4CD",
"Y#	c #D1CEC5",
"Z#	c #B3AFA5",
"`#	c #A19D92",
" $	c #999488",
".$	c #9D988B",
"+$	c #928B7D",
"@$	c #706656",
"#$	c #AB8A74",
"$$	c #BBB1AA",
"%$	c #B5B3AF",
"&$	c #BBB8B1",
"*$	c #B8B5AD",
"=$	c #A29F94",
"-$	c #928E83",
";$	c #918C80",
">$	c #9A9588",
",$	c #8E8678",
"'$	c #6D6353",
")$	c #A58169",
"!$	c #B5A9A2",
"~$	c #AEABA8",
"{$	c #98958E",
"]$	c #8A877E",
"^$	c #848075",
"/$	c #858175",
"($	c #999588",
"_$	c #9F9A8D",
":$	c #675D4C",
"<$	c #554F3F",
"[$	c #956B49",
"}$	c #9B8C83",
"|$	c #AFACA7",
"1$	c #AAA7A0",
"2$	c #96938A",
"3$	c #928F83",
"4$	c #A9A497",
"5$	c #989285",
"6$	c #776E5E",
"7$	c #5F5544",
"8$	c #8F5F33",
"9$	c #7A6252",
"0$	c #85807A",
"a$	c #9E9A93",
"b$	c #A8A49B",
"c$	c #A9A59A",
"d$	c #A19D91",
"e$	c #918C7F",
"f$	c #7C7464",
"g$	c #685D4B",
"h$	c #595140",
"i$	c #8D5C2B",
"j$	c #6A4A2F",
"k$	c #5F5248",
"l$	c #746C62",
"m$	c #807A70",
"n$	c #837E72",
"o$	c #7F786A",
"p$	c #766B5B",
"q$	c #6B5D4A",
"r$	c #5E5342",
"s$	c #604024",
"t$	c #4B3A2B",
"u$	c #5F4C3B",
"v$	c #685846",
"w$	c #6C5D4B",
"x$	c #6D5D4A",
"y$	c #685945",
"z$	c #5E5341",
"A$	c #565040",
"B$	c #342D24",
"C$	c #453B2E",
"D$	c #524637",
"E$	c #594D3C",
"F$	c #5A4F3E",
"G$	c #574F3F",
"H$	c #7F4D24",
"I$	c #905C2A",
"J$	c #885829",
"K$	c #593C22",
"L$	c #3A372D",
"M$	c #454034",
"N$	c #4C4639",
"O$	c #504A3D",
"P$	c #8D6A4A",
"Q$	c #744B31",
"R$	c #7F583F",
"S$	c #835A3C",
"T$	c #7A512D",
"U$	c #523821",
"V$	c #B0895C",
"W$	c #AE8F67",
"X$	c #8A7059",
"Y$	c #83746D",
"Z$	c #958B86",
"`$	c #8F827C",
" %	c #746057",
".%	c #4A382D",
"+%	c #302B24",
"@%	c #AC8458",
"#%	c #A08362",
"$%	c #92857C",
"%%	c #B9B6B5",
"&%	c #D2D1D1",
"*%	c #C7C5C4",
"=%	c #9B9694",
"-%	c #5F524C",
";%	c #382E24",
">%	c #9A8165",
",%	c #A59F9E",
"'%	c #E3E3E3",
")%	c #FCFCFC",
"!%	c #BBB9B8",
"~%	c #706460",
"{%	c #988066",
"]%	c #A6A1A0",
"^%	c #E5E5E5",
"/%	c #FEFEFE",
"(%	c #C0BDBD",
"_%	c #736864",
":%	c #967D62",
"<%	c #979291",
"[%	c #D4D4D4",
"}%	c #F3F3F3",
"|%	c #E6E6E6",
"1%	c #B2B0AF",
"2%	c #6D625D",
"3%	c #87817F",
"4%	c #B7B7B7",
"5%	c #DADADA",
"6%	c #CFCFCF",
"7%	c #9B9897",
"8%	c #837D7C",
"9%	c #AFAFAF",
"0%	c #C8C8C8",
"a%	c #959190",
"b%	c #7F7977",
"c%	c #9A9A9A",
"d%	c #A8A8A8",
"e%	c #898584",
"f%	c #695D58",
"g%	c #977E63",
"h%	c #7D7D7D",
"i%	c #616161",
"j%	c #84807E",
"k%	c #6D615D",
"l%	c #987D61",
"m%	c #8A807D",
"n%	c #989594",
"o%	c #8C8B8B",
"p%	c #949292",
"q%	c #999390",
"r%	c #746762",
"s%	c #957857",
"t%	c #7E6A61",
"u%	c #9F9490",
"v%	c #AEA7A4",
"w%	c #A8A09C",
"x%	c #91837E",
"y%	c #67544C",
"z%	c #3C2E24",
"A%	c #9C7C57",
"B%	c #6B4B35",
"C%	c #735B51",
"D%	c #88766E",
"E%	c #7E6960",
"F%	c #604133",
"G%	c #472C1B",
"H%	c #372D24",
"I%	c #AC8C63",
"J%	c #7C5C3F",
"K%	c #552C13",
"L%	c #552D14",
"M%	c #5A3115",
"N%	c #593318",
"O%	c #432C1C",
"P%	c #302C24",
"Q%	c #75431F",
"R%	c #97622D",
"S%	c #9D6B3A",
"T%	c #AE875A",
"U%	c #B08F66",
"V%	c #8A6646",
"W%	c #6D3F1D",
"X%	c #764720",
"Y%	c #7D4E23",
"Z%	c #774C23",
"`%	c #503620",
" &	c #885427",
".&	c #98632F",
"+&	c #AA7F4F",
"@&	c #C0A276",
"#&	c #917152",
"$&	c #6E3D1D",
"%&	c #7D4B22",
"&&	c #845125",
"*&	c #88572D",
"=&	c #936A44",
"-&	c #95704D",
";&	c #815737",
">&	c #915D2B",
",&	c #5A3219",
"'&	c #7B4821",
")&	c #855226",
"!&	c #91653D",
"~&	c #A07E59",
"{&	c #815C3F",
"]&	c #7B5A4D",
"^&	c #7E5C4D",
"/&	c #7E5B4D",
"(&	c #7E5C4E",
"_&	c #805C4D",
":&	c #8F6750",
"<&	c #9F7353",
"[&	c #A37655",
"}&	c #956E52",
"|&	c #6D594F",
"1&	c #514F50",
"2&	c #585654",
"3&	c #5E5B58",
"4&	c #635F5A",
"5&	c #67635D",
"6&	c #69665E",
"7&	c #6B685F",
"8&	c #6D6A60",
"9&	c #6C695F",
"0&	c #6A675E",
"a&	c #68655D",
"b&	c #65645C",
"c&	c #63615B",
"d&	c #615F59",
"e&	c #5F5D57",
"f&	c #5D5B56",
"g&	c #5A5955",
"h&	c #585754",
"i&	c #565552",
"j&	c #525151",
"k&	c #4F4E4F",
"l&	c #4E4C4E",
"m&	c #4D4B4D",
"n&	c #4C4A4D",
"o&	c #4B4A4C",
"p&	c #4A484C",
"q&	c #4A484B",
"r&	c #49484B",
"s&	c #48474A",
"t&	c #47474A",
"u&	c #474749",
"v&	c #474649",
"w&	c #48484A",
"x&	c #4B4B4B",
"y&	c #564E4C",
"z&	c #6F564D",
"A&	c #7D5C4D",
"B&	c #7F5D4E",
"C&	c #815F4F",
"D&	c #836151",
"E&	c #7F5E51",
"F&	c #987D77",
"                                                                                                                                ",
"    . + + + @ @ @ @ @ @ @ @ @ @ @ @ @ + + + + + + + + + + + + + + + + @ @ @ @ @ @ @ @ @ @ @ @ @ @ + + + + + + + # $ % & * =     ",
"  - ; > > , ; ' ) ! ~ { { { { { { { { { { { { { { { { { { { { { { { { { { { { { { { { { { { { { { { { ] ^ / ) ( _ > : < [ } |   ",
"  1 2 3 3 4 5 6 ) 7 8 9 9 9 9 9 9 9 9 9 9 9 9 9 9 9 9 9 9 9 9 9 9 9 9 9 9 9 9 9 9 9 9 9 9 9 9 9 9 9 9 0 a b c d e 3 f f g h i   ",
"  j k l m n o b ) p q r r r r r r r r r r r r r r r r r r r r r r r r r r r r r r r r r r r r r r r r s t u c v w l x y z A B   ",
"  C D E F l G H ) p I J J J J J J J J J J J J J J J J J J J J J J J J J J J J J J J J J J J J J J J J K L M c N O E P Q R S T   ",
"  U V W X Y Z H ) `  .................................................................................+.@.M c #.$.W %.&.*.S =.  ",
"  U -.J X ;.Z H ) >.,.'.'.'.'.'.'.'.'.'.'.'.'.'.'.'.'.'.'.'.'.'.'.'.'.'.'.'.'.'.'.'.'.'.'.'.'.'.'.'.'.).!.M c #.~.J {...*.].^.  ",
"  U -.J X ;.Z H ) /.(._._._._._._._._._._._._._._._._._._._._._._._._._._._._._._._._._._._._._._._._.:.<.[.) #.~.J {...*.].^.  ",
"  U -.J X ;.Z }.|.1.2.3.4.5.6.7.8.9.0.a.b.b.c.d.e.f.g.h.i.j.k.l.m.n.o.p.q.r.s.t.u.v.v.w.x.y.y.z.z.z.z.z.A.B.C.D.~.J {...*.].^.  ",
"  U -.J X ;.Z E.F.G.H.I.J.K.L.M.N.O.P.Q.Q.Q.R.S.T.U.V.W.X.Y.Z.`. +.+++@+#+$+%+&+*+=+-+;+>+,+'+)+)+!+!+!+!+!+~+{+~.J {...*.].^.  ",
"  U -.J X ;.Z ]+^+/+J (+_+:+<+[+}+|+1+2+2+3+4+5+6+7+8+9+0+<+a+b+c+d+e+f+g+h+i+j+k+l+m+n+o+p+q+q+r+s+s+s+s+s+t+u+~.J {...*.].^.  ",
"  U -.J X ;.Z ]+^+v+J (+_+w+<+[+}+|+1+2+2+x+4+5+6+7+8+9+y+<+a+b+c+d+e+f+g+h+i+z+k+l+m+n+o+p+q+q+r+s+s+s+s+s+t+u+~.J {...*.].^.  ",
"  U -.J X ;.Z ]+A+B+J (+_+w+<+[+}+|+1+2+2+x+4+5+6+7+8+9+y+<+a+b+c+d+e+f+g+h+i+z+k+l+m+n+o+p+q+q+r+s+s+s+s+s+t+u+~.J {...*.].^.  ",
"  U -.J X ;.Z C+D+E+F+G+H+w+<+[+}+|+1+2+2+x+4+5+6+7+8+9+y+<+a+b+c+d+e+f+g+h+i+z+k+l+m+n+o+p+q+q+r+s+s+s+s+s+t+u+~.J {...*.].^.  ",
"  U -.J X I+J+K+L+M+N+O+P+Q+<+[+}+|+1+2+2+x+4+5+6+7+8+9+y+<+a+b+c+d+e+f+g+h+i+z+k+l+m+n+o+p+q+q+r+s+s+s+s+s+t+u+~.J {...*.].^.  ",
"  U -.J X R+S+T+U+V+W+X+Y+Z+<+[+}+|+1+2+2+x+4+5+6+7+8+9+y+<+a+b+c+d+e+f+g+h+i+z+k+l+m+n+o+p+q+q+r+s+s+s+s+s+t+u+~.J {...*.].^.  ",
"  U -.J X `+ @.@+@@@#@$@%@&@<+[+}+|+1+2+2+x+4+5+6+7+8+9+y+<+a+b+c+d+e+f+g+h+i+z+k+l+m+n+o+p+q+q+r+s+s+s+s+s+t+u+~.J {...*.].*@  ",
"  U -.J X =@-@;@>@,@'@)@!@&@<+[+}+|+1+2+2+x+4+5+6+7+8+9+y+<+a+b+c+d+e+f+g+h+i+z+k+l+m+n+o+p+q+q+r+s+s+s+s+s+t+u+~.J {...*.].~@  ",
"  U -.J X =@{@]@^@@@/@(@_@&@<+[+}+|+1+2+2+x+4+5+6+7+8+9+y+<+a+b+c+d+e+f+g+h+i+z+k+l+m+n+o+p+q+q+r+s+s+s+s+s+t+u+~.J {...*.].~@  ",
"  U -.J X =@:@<@[@}@|@1@2@&@<+[+}+|+1+2+2+x+4+5+6+7+8+9+y+<+a+b+c+d+e+f+g+h+i+z+k+l+m+n+o+p+q+q+r+s+s+s+s+s+t+u+~.J {...*.].~@  ",
"  U -.J X =@3@4@5@6@7@8@2@&@<+[+}+|+1+2+2+x+4+5+6+7+8+9+y+<+a+b+c+d+e+f+g+h+i+z+k+l+m+n+o+p+q+q+r+s+s+s+s+s+t+u+~.J {...*.].~@  ",
"  U -.J X =@3@9@0@a@b@c@2@&@<+[+}+|+1+2+2+x+4+5+6+7+8+9+y+<+a+b+c+d+e+f+g+h+i+z+k+l+m+n+o+p+q+q+r+s+s+s+s+s+t+u+~.J {...*.].~@  ",
"  U -.J X =@d@e@f@g@h@i@j@&@<+[+}+|+1+2+2+x+4+5+6+7+8+9+y+<+a+b+c+d+e+f+g+h+i+z+k+l+m+n+o+p+q+q+r+s+s+s+s+s+t+u+~.J {...*.].~@  ",
"  U -.J X =@k@l@m@n@o@p@q@&@<+[+}+|+1+2+2+x+4+5+6+7+8+9+y+<+a+b+c+d+e+f+g+h+i+z+k+l+m+n+o+p+q+q+r+s+s+s+s+s+t+u+~.J {...*.].~@  ",
"  U -.J X r@s@t@u@v@w@x@y@&@<+[+}+|+1+2+2+x+4+5+6+7+8+9+y+<+a+b+c+d+e+f+g+h+i+z+k+l+m+n+o+p+q+q+r+s+s+s+s+s+t+u+~.J {...*.].~@  ",
"  U -.J X z@A@B@C@D@E@F@G@H@<+[+}+|+1+2+2+x+4+5+6+7+8+9+y+<+a+b+c+d+e+f+g+h+i+z+k+l+m+n+o+p+q+q+r+s+s+s+s+s+t+u+~.J {...*.].~@  ",
"  U -.J X I@J@K@L@M@N@O@P@Q@<+[+}+|+1+2+2+x+4+5+6+7+8+9+y+<+a+b+c+d+e+f+g+h+i+z+k+l+m+n+o+p+q+q+r+s+s+s+s+s+t+u+~.J {...*.].~@  ",
"  U -.J X ;.R@S@T@U@V@W@X@Y@<+[+}+|+1+2+2+x+4+5+6+7+8+9+y+<+a+b+c+d+e+f+g+h+i+z+k+l+m+n+o+p+q+q+r+s+s+s+s+s+t+u+~.J {...*.].~@  ",
"  U -.J X ;.Z E.Z@`@ #.#_+Y@+#@###5+$#2+2+x+4+5+6+7+8+9+y+<+a+b+c+d+e+f+g+h+i+z+k+l+m+n+o+p+q+q+r+s+s+s+s+s+t+u+~.J {...*.].~@  ",
"  U -.J X ;.Z ]+^+v+J (+%#&#*#=#-#;#>#,#2+x+4+5+6+7+8+9+y+<+a+b+c+d+e+f+g+h+i+z+k+l+m+n+o+p+q+q+r+s+s+s+s+s+t+u+~.J {...*.].~@  ",
"  U -.J X ;.Z ]+^+v+J '#)#!#~#{#]#^#/#(#_#3+4+5+6+7+8+9+y+<+a+b+c+d+e+f+g+h+i+z+k+l+m+n+o+p+q+q+r+s+s+s+s+s+t+u+~.J {...*.].*@  ",
"  U -.J X ;.Z ]+^+v+J :#<#[#}#|#1#2#3#4#5#6#7#5+6+7+8+9+y+<+a+b+c+d+e+f+g+h+i+z+k+l+m+n+o+p+q+q+r+s+s+s+s+s+t+u+~.J {...*.].8#  ",
"  U -.J X ;.Z ]+^+v+J 9#0#a#b#c#d#e#f#g#h#i#j#5+6+7+8+9+y+<+a+b+c+d+e+f+g+h+i+z+k+l+m+n+o+p+q+q+r+s+s+s+s+s+t+u+~.J {...*.].^.  ",
"  U -.J X ;.Z ]+^+v+J k#l#m#n#o#p#q#r#s#t#u#v#5+6+7+8+9+y+<+a+b+c+d+e+f+g+h+i+z+k+l+m+n+o+p+q+q+r+s+s+s+s+s+t+u+~.J {...*.].^.  ",
"  U -.J X ;.Z ]+^+v+J w#x#y#z#A#B#C#D#E#F#G#H#5+6+7+8+9+y+<+a+b+c+d+e+f+g+h+i+z+k+l+m+n+o+p+q+q+r+s+s+s+s+s+t+u+~.J {...*.].^.  ",
"  U -.J X ;.Z ]+^+v+J I#J#K#L#M#N#O#P#Q#R#S#_#T#6+7+8+9+y+<+a+b+c+d+e+f+g+h+i+z+k+l+m+n+o+p+q+q+r+s+s+s+s+s+t+u+~.J {...*.].^.  ",
"  U -.J X ;.Z ]+^+v+J U#V#W#X#Y#Z#`# $.$+$@$_#T#6+7+8+9+y+<+a+b+c+d+e+f+g+h+i+z+k+l+m+n+o+p+q+q+r+s+s+s+s+s+t+u+~.J {...*.].^.  ",
"  U -.J X ;.Z ]+^+v+J #$$$%$&$*$=$-$;$>$,$'$_#T#6+7+8+9+y+<+a+b+c+d+e+f+g+h+i+z+k+l+m+n+o+p+q+q+r+s+s+s+s+s+t+u+~.J {...*.].^.  ",
"  U -.J X ;.Z ]+^+v+J )$!$~${$]$^$/$($_$g#:$<$5+6+7+8+9+y+<+a+b+c+d+e+f+g+h+i+z+k+l+m+n+o+p+q+q+r+s+s+s+s+s+t+u+~.J {...*.].^.  ",
"  U -.J X ;.Z ]+^+v+J [$}$|$1$2$3$E#4$5$6$7$v#5+6+7+8+9+y+<+a+b+c+d+e+f+g+h+i+z+k+l+m+n+o+p+q+q+r+s+s+s+s+s+t+u+~.J {...*.].^.  ",
"  U -.J X ;.Z ]+^+v+J 8$9$0$a$b$c$d$e$f$g$h$j#5+6+7+8+9+y+<+a+b+c+d+e+f+g+h+i+z+k+l+m+n+o+p+q+q+r+s+s+s+s+s+t+u+~.J {...*.].^.  ",
"  U -.J X ;.Z ]+^+v+J i$j$k$l$m$n$o$p$q$r$<$7#5+6+7+8+9+y+<+a+b+c+d+e+f+g+h+i+z+k+l+m+n+o+p+q+q+r+s+s+s+s+s+t+u+~.J {...*.].^.  ",
"  U -.J X ;.Z ]+^+v+J '#s$t$u$v$w$x$y$z$A$3+4+5+6+7+8+9+y+<+a+b+c+d+e+f+g+h+i+z+k+l+m+n+o+p+q+q+r+s+s+s+s+s+t+u+~.J {...*.].^.  ",
"  U -.J X ;.Z ]+^+v+J (+_+B$C$D$E$F$G$6#2+x+4+5+6+7+8+9+y+<+a+b+c+d+e+f+g+h+i+z+k+l+m+n+o+p+q+q+r+s+s+s+s+s+t+u+~.J {...*.].^.  ",
"  U -.J X ;.Z E.H$I$B+J$K$:+L$M$N$O$1+2+2+x+4+5+6+7+8+9+y+<+a+b+c+d+e+f+g+h+i+z+k+l+m+n+o+p+q+q+r+s+s+s+s+s+t+u+~.J {...*.].^.  ",
"  U -.J X ;.Z P$Q$R$S$T$U$Y@<+[+}+|+1+2+2+x+4+5+6+7+8+9+y+<+a+b+c+d+e+f+g+h+i+z+k+l+m+n+o+p+q+q+r+s+s+s+s+s+t+u+~.J {...*.].8#  ",
"  U -.J X V$W$X$Y$Z$`$ %.%+%<+[+}+|+1+2+2+x+4+5+6+7+8+9+y+<+a+b+c+d+e+f+g+h+i+z+k+l+m+n+o+p+q+q+r+s+s+s+s+s+t+u+~.J {...*.].~@  ",
"  U -.J X @%#%$%%%&%*%=%-%;%<+[+}+|+1+2+2+x+4+5+6+7+8+9+y+<+a+b+c+d+e+f+g+h+i+z+k+l+m+n+o+p+q+q+r+s+s+s+s+s+t+u+~.J {...*.].~@  ",
"  U -.J X r@>%,%'%)%#@!%~%&@<+[+}+|+1+2+2+x+4+5+6+7+8+9+y+<+a+b+c+d+e+f+g+h+i+z+k+l+m+n+o+p+q+q+r+s+s+s+s+s+t+u+~.J {...*.].~@  ",
"  U -.J X =@{%]%^%/%'@(%_%&@<+[+}+|+1+2+2+x+4+5+6+7+8+9+y+<+a+b+c+d+e+f+g+h+i+z+k+l+m+n+o+p+q+q+r+s+s+s+s+s+t+u+~.J {...*.].~@  ",
"  U -.J X =@:%<%[%}%|%1%2%&@<+[+}+|+1+2+2+x+4+5+6+7+8+9+y+<+a+b+c+d+e+f+g+h+i+z+k+l+m+n+o+p+q+q+r+s+s+s+s+s+t+u+~.J {...*.].~@  ",
"  U -.J X =@3@3%4%5%6%7%2@&@<+[+}+|+1+2+2+x+4+5+6+7+8+9+y+<+a+b+c+d+e+f+g+h+i+z+k+l+m+n+o+p+q+q+r+s+s+s+s+s+t+u+~.J {...*.].~@  ",
"  U -.J X =@3@8%9%|@0%a%2@&@<+[+}+|+1+2+2+x+4+5+6+7+8+9+y+<+a+b+c+d+e+f+g+h+i+z+k+l+m+n+o+p+q+q+r+s+s+s+s+s+t+u+~.J {...*.].~@  ",
"  U -.J X =@:@b%c%9%d%e%f%&@<+[+}+|+1+2+2+x+4+5+6+7+8+9+y+<+a+b+c+d+e+f+g+h+i+z+k+l+m+n+o+p+q+q+r+s+s+s+s+s+t+u+~.J {...*.].~@  ",
"  U -.J X =@g%9@h%i%h@j%k%&@<+[+}+|+1+2+2+x+4+5+6+7+8+9+y+<+a+b+c+d+e+f+g+h+i+z+k+l+m+n+o+p+q+q+r+s+s+s+s+s+t+u+~.J {...*.].~@  ",
"  U -.J X =@l%m%n%o%p%q%r%&@<+[+}+|+1+2+2+x+4+5+6+7+8+9+y+<+a+b+c+d+e+f+g+h+i+z+k+l+m+n+o+p+q+q+r+s+s+s+s+s+t+u+~.J {...*.].~@  ",
"  U -.J X r@s%t%u%v%w%x%y%z%<+[+}+|+1+2+2+x+4+5+6+7+8+9+y+<+a+b+c+d+e+f+g+h+i+z+k+l+m+n+o+p+q+q+r+s+s+s+s+s+t+u+~.J {...*.].~@  ",
"  U -.J X @%A%B%C%D%E%F%G%H%<+[+}+|+1+2+2+x+4+5+6+7+8+9+y+<+a+b+c+d+e+f+g+h+i+z+k+l+m+n+o+p+q+q+r+s+s+s+s+s+t+u+~.J {...*.].~@  ",
"  U -.J X V$I%J%K%L%M%N%O%P%<+[+}+|+1+2+2+x+4+5+6+7+8+9+y+<+a+b+c+d+e+f+g+h+i+z+k+l+m+n+o+p+q+q+r+s+s+s+s+s+t+u+~.J {...*.].~@  ",
"  Q%I R%S%T%U%V%W%X%Y%Z%`%w+<+[+}+|+1+2+2+x+4+5+6+7+8+9+y+<+a+b+c+d+e+f+g+h+i+z+k+l+m+n+o+p+q+q+r+s+s+s+s+s+t+u+ &R%.&+&@&#&~@  ",
"  $&%&&&*&=&-&;&F.>&R%(+_+w+<+[+}+|+1+2+2+x+4+5+6+7+8+9+y+<+a+b+c+d+e+f+g+h+i+z+k+l+m+n+o+p+q+q+r+s+s+s+s+s+t+,&'&&&)&!&~&{&*@  ",
"  ]&^&^&/&/&(&_&:&<&[&}&|&1&2&3&4&5&6&7&8&8&9&0&a&b&c&d&e&f&g&h&i&j&k&l&m&n&o&p&q&r&s&s&t&u&v&v&w&x&x&x&x&x&y&z&A&B&B&C&D&E&F&  ",
"                                                                                                                                "};
