/* XPM */
static char * exit_xpm[] = {
"64 64 12 1",
" 	c #0058ED",
".	c #3E53AD",
"+	c #63531F",
"@	c #9A844B",
"#	c #A99458",
"$	c #887132",
"%	c #49412B",
"&	c #756228",
"*	c #9C8442",
"=	c #4E4117",
"-	c #373019",
";	c #1F1B0E",
"                                                                ",
"                                                                ",
"                                                                ",
"                                                                ",
"                                                                ",
"                                                                ",
"                                                                ",
"                                                                ",
"                                                                ",
"                                                                ",
"                                                                ",
"                                                                ",
"                                                                ",
"                                                                ",
"                                                                ",
"                                                                ",
"                                                                ",
"                                                                ",
"                                                                ",
"                            .+@#@$+%%                           ",
"                          $$&+$#@+&$*#%%                        ",
"                       %$+@$&+$#$=&*#*+&.                       ",
"                     %$+$+@$$=&@&=&*##+$#*                      ",
"                    %&+=&+$$$=&$+=&$*#+*#&#                     ",
"                    +===++&$&=+&+=+&$#=**&##%                   ",
"                   =++==+&+&+==+=+$+=$+*#+##$%                  ",
"                   ==+===&=+$+===$$+$==$*=#*&%                  ",
"                  =-=+=-+&++$&==+&$+*+=$$+#*&&                  ",
"                  ---==-+&+&$&=+&+&$*&+$&=*$+$%                 ",
"                 =--=-=-=&+&$&+=&$+$$&=*$=$*+$&                 ",
"                 ----+---+=&&&+=+&=$*&=**=**+*&                 ",
"                 ---=-=-=-+=&++-+++$$++*$=$*&$&                 ",
"                 ----=---+-=&+===+=&$+=*$=&*&*&                 ",
"                 =-;=-=-=-=-+==-===&&+=$&=&$&*&                 ",
"                 +---=---=-=-=-;=-=+==-&==+&&*&                 ",
"                 %-;---;-------;---=---==+=&&$                  ",
"                  =;-=;;;-;-;-;;;-;-;---=-=+&&                  ",
"                  %-;--;-;-;-;-;;;-;-;-;---=&.                  ",
"                   =;-;;;-;-;;;;;;;-;-;-;---+                   ",
"                   %=;-;-;;;;;;;;;;;;;-;--;=                    ",
"                     =;;;;;;;;;;;;;;;;;;;-=%                    ",
"                      =-;;;;;;;;;;;;;;;;-=%                     ",
"                       .=-;;;;;;;;;;;;-=%%                      ",
"                        %%=-;;;;;;;;-=.                         ",
"                           %%======.                            ",
"                                                                ",
"                                                                ",
"                                                                ",
"                                                                ",
"                                                                ",
"                                                                ",
"                                                                ",
"                                                                ",
"                                                                ",
"                                                                ",
"                                                                ",
"                                                                ",
"                                                                ",
"                                                                ",
"                                                                ",
"                                                                ",
"                                                                ",
"                                                                ",
"                                                                "};
