/* XPM */
static char * hole_xpm[] = {
"64 64 294 2",
"  	c #55A666",
". 	c #171A17",
"+ 	c #21110D",
"@ 	c #347B2C",
"# 	c #114517",
"$ 	c #315030",
"% 	c #503625",
"& 	c #161916",
"* 	c #23201B",
"= 	c #46331E",
"- 	c #815728",
"; 	c #8A5D28",
"> 	c #8F632E",
", 	c #7E5932",
"' 	c #272328",
") 	c #030303",
"! 	c #0E100E",
"~ 	c #141614",
"{ 	c #222020",
"] 	c #5B4126",
"^ 	c #916535",
"/ 	c #885E36",
"( 	c #4D3C35",
"_ 	c #362F34",
": 	c #2C2A34",
"< 	c #3F3535",
"[ 	c #664A36",
"} 	c #A16D36",
"| 	c #986937",
"1 	c #7C5636",
"2 	c #000000",
"3 	c #131613",
"4 	c #41342C",
"5 	c #A16C2E",
"6 	c #45372F",
"7 	c #1F2234",
"8 	c #212434",
"9 	c #7E5B37",
"0 	c #996A36",
"a 	c #060706",
"b 	c #101210",
"c 	c #0A0C0A",
"d 	c #5B4534",
"e 	c #9D6C37",
"f 	c #2D2931",
"g 	c #1E2130",
"h 	c #775335",
"i 	c #9F6E38",
"j 	c #382F34",
"k 	c #131513",
"l 	c #4D3B35",
"m 	c #C18238",
"n 	c #2D2A34",
"o 	c #222330",
"p 	c #372E34",
"q 	c #252534",
"r 	c #212334",
"s 	c #362D34",
"t 	c #292834",
"u 	c #1F2334",
"v 	c #694B35",
"w 	c #8D6237",
"x 	c #070907",
"y 	c #141714",
"z 	c #78552F",
"A 	c #3D312E",
"B 	c #1D202D",
"C 	c #1E202A",
"D 	c #855B30",
"E 	c #9B6C37",
"F 	c #976837",
"G 	c #855D36",
"H 	c #9A6C37",
"I 	c #A67237",
"J 	c #232535",
"K 	c #252634",
"L 	c #624836",
"M 	c #2D2724",
"N 	c #9F6D36",
"O 	c #202332",
"P 	c #1E2132",
"Q 	c #322A32",
"R 	c #976836",
"S 	c #B47A38",
"T 	c #3E3435",
"U 	c #956837",
"V 	c #8F6337",
"W 	c #644B36",
"X 	c #302C35",
"Y 	c #AF7738",
"Z 	c #151815",
"` 	c #74502A",
" .	c #5B4436",
"..	c #2D2834",
"+.	c #A97437",
"@.	c #644A36",
"#.	c #B67C38",
"$.	c #2C2934",
"%.	c #9C6C37",
"&.	c #614936",
"*.	c #AD7638",
"=.	c #443735",
"-.	c #845E37",
";.	c #4B3835",
">.	c #8D602B",
",.	c #232434",
"'.	c #564135",
").	c #926437",
"!.	c #513E35",
"~.	c #413435",
"{.	c #926536",
"].	c #664A35",
"^.	c #654936",
"/.	c #0B0D0B",
"(.	c #191B19",
"_.	c #8E6332",
":.	c #664935",
"<.	c #6F5136",
"[.	c #1D1D1B",
"}.	c #8F6538",
"|.	c #594235",
"1.	c #7A5935",
"2.	c #1C1D1B",
"3.	c #202334",
"4.	c #3B3335",
"5.	c #554236",
"6.	c #262735",
"7.	c #644835",
"8.	c #705236",
"9.	c #755338",
"0.	c #BC8038",
"a.	c #222434",
"b.	c #352E34",
"c.	c #A37037",
"d.	c #936536",
"e.	c #835B36",
"f.	c #845C36",
"g.	c #7A5436",
"h.	c #050605",
"i.	c #111311",
"j.	c #A36F37",
"k.	c #533F36",
"l.	c #A77137",
"m.	c #534135",
"n.	c #262634",
"o.	c #825C37",
"p.	c #4D3A35",
"q.	c #101310",
"r.	c #4F3D36",
"s.	c #9F6D37",
"t.	c #282734",
"u.	c #A87438",
"v.	c #895E36",
"w.	c #4A3C35",
"x.	c #2D2B34",
"y.	c #AA7538",
"z.	c #010101",
"A.	c #111411",
"B.	c #8F6537",
"C.	c #403335",
"D.	c #B27838",
"E.	c #3B3134",
"F.	c #986836",
"G.	c #222534",
"H.	c #6A4E36",
"I.	c #5A4235",
"J.	c #B77C37",
"K.	c #2B2934",
"L.	c #5A4335",
"M.	c #B27938",
"N.	c #433634",
"O.	c #232534",
"P.	c #A16F37",
"Q.	c #634735",
"R.	c #433326",
"S.	c #996A37",
"T.	c #2D2A35",
"U.	c #523D35",
"V.	c #B77C38",
"W.	c #936538",
"X.	c #282834",
"Y.	c #A67338",
"Z.	c #3C3135",
"`.	c #1D281C",
" +	c #201D18",
".+	c #171C17",
"++	c #1A2A19",
"@+	c #5B4331",
"#+	c #B07833",
"$+	c #493A35",
"%+	c #755536",
"&+	c #3B3034",
"*+	c #1F1D18",
"=+	c #483524",
"-+	c #3D5534",
";+	c #4E965C",
">+	c #4F9A5E",
",+	c #3E7D4B",
"'+	c #1A221A",
")+	c #2D6927",
"!+	c #9C6B37",
"~+	c #8D6337",
"{+	c #785336",
"]+	c #312C34",
"^+	c #292934",
"/+	c #383135",
"(+	c #8F6136",
"_+	c #9A6B37",
":+	c #8A6036",
"<+	c #4D3524",
"[+	c #4C3C28",
"}+	c #3B623C",
"|+	c #509B5F",
"1+	c #4C965C",
"2+	c #392E32",
"3+	c #6B4F36",
"4+	c #C58539",
"5+	c #D18C39",
"6+	c #B87E38",
"7+	c #906538",
"8+	c #4C3A35",
"9+	c #222D1A",
"0+	c #4A3723",
"a+	c #4E3926",
"b+	c #385A36",
"c+	c #4F9A5F",
"d+	c #2E4B2D",
"e+	c #151715",
"f+	c #2E6B27",
"g+	c #274D1D",
"h+	c #483C25",
"i+	c #385936",
"j+	c #4C955B",
"k+	c #1D371B",
"l+	c #2F7028",
"m+	c #244D20",
"n+	c #325734",
"o+	c #233B26",
"p+	c #1A2B19",
"q+	c #2D6A27",
"r+	c #1A2C19",
"s+	c #30702A",
"t+	c #335D34",
"u+	c #4A9058",
"v+	c #152518",
"w+	c #172117",
"x+	c #174419",
"y+	c #1A2F19",
"z+	c #1B481B",
"A+	c #2D4C2C",
"B+	c #223925",
"C+	c #171B17",
"D+	c #171F17",
"E+	c #2E6A27",
"F+	c #212B12",
"G+	c #1B2119",
"H+	c #2F6E28",
"I+	c #307329",
"J+	c #1B4C1A",
"K+	c #1F1C10",
"L+	c #181E17",
"M+	c #20401D",
"N+	c #306E28",
"O+	c #212C14",
"P+	c #181916",
"Q+	c #243315",
"R+	c #191B16",
"S+	c #1D361B",
"T+	c #1D381B",
"U+	c #317229",
"V+	c #327229",
"W+	c #212813",
"X+	c #1D351B",
"Y+	c #1B2C19",
"Z+	c #2F6D28",
"`+	c #233415",
" @	c #23371C",
".@	c #1A211A",
"+@	c #213A25",
"@@	c #1D2F1C",
"#@	c #1A241A",
"$@	c #181C17",
"%@	c #1F331D",
"&@	c #222912",
"*@	c #253219",
"=@	c #2F4B2D",
"-@	c #2D492C",
";@	c #2A502F",
">@	c #203824",
",@	c #181E19",
"'@	c #27482D",
")@	c #28492E",
"!@	c #213925",
"~@	c #4F9B5F",
"                                                                                                                                ",
"                                                                                                                                ",
"                                                                                                                                ",
"                                                                                                                                ",
"                                                                                                                                ",
"                                                                                                                                ",
"                                                                                                                                ",
"                                                                                                                                ",
"                                                                                                                                ",
"                                                                                                                                ",
"                                                                                . . .                                           ",
"                                            . . .           . . .             . . . . . .   + +                                 ",
"                                + + +     . . . . . . . . . . . . . . . . . . . . . . . @ . @ @ .                               ",
"                              + @ @ @ . . @ . . . . . @ . . . . . . . . . . . . . . . . . . . . . .                             ",
"                            + @ @ . . . @ . . . . . . . . . . . . . . . . . . . . . . . . . . . . .                             ",
"                            + @ . . . . . . . . . . . . . . . . . . . . . @ . . . . . . . . . @ . .                             ",
"                          + @ . . . . . . . . . . . . . . . . . . . . . . . . . . . . . . . . . . . .                           ",
"                        + # @ @ . . . . . . . . . . . . . . . . . . . . . . . . . . . . . . . . . . .                           ",
"                        + @ . . . . . . . . . . . . . . . . . . . . . . . . . . . . . . . . . . . . . .                         ",
"                      $ # . . . . . . . . . . . . . . . . . . . . . . . . . . . . . . . . . . . . . # .                         ",
"                      $ @ . . . . . . . . . . . . . . . . . . . . . . . . . . . . . . . . . . . . . @ . .                       ",
"                    $ # @ . . . . . . . . . . . . . . . . . . . . . . . . . . . . . . . . . . . . . . . .                       ",
"                    $ % # @ . . . . . . . . . . . . . . & * = - ; > , ' ) ! . . . . . . . . . . . . . . .                       ",
"                    $ % % . . . . . . . . . . . . ~ { ] ^ / ( _ : < [ } | 1 2 2 . . . . . . . . . . . . . .                     ",
"                    $ % % . . . . . . . . . . & 3 4 5 6 7 7 7 7 7 7 7 7 8 9 0 2 a b . . . . . . . @ . . . .                     ",
"                      $ % . . . . . . . . . . c d e f g 7 7 7 7 7 7 7 7 7 8 h i j ! . . . . . . . . . . . .                     ",
"                      $ . . . . . . . . . . k l m n g o p q 7 7 7 7 r s t u u v w x ! . . . . . . . . . .                       ",
"                    $ % . . . . . . . . . . y z A B C D E F 7 7 7 7 G H I J u K e L 2 . . . . . . @ . % .                       ",
"                    $ # . . . . . . . . . . M N O P Q R r S T 7 7 7 U 8 V W u u X Y 2 ! Z . . . . . . # .                       ",
"                    $ # . . . . . . . . . . `  .7 7 ..+.@.#.$.7 7 u %.&.*.=.u u u -.;.2 y . . . . . . # . .                     ",
"                    $ # . . . . . . . . . . >.,.7 7 7 '.).!.7 7 u u ~.{.].u u u u 1 ^.2 /.! . . . . . # . .                     ",
"                    $ # . . . . . . . . . (._.7 7 7 7 7 7 7 7 u u u u u u u u u u :.<.2 ) ! . . . . . # . .                     ",
"                  $ % # . . . . . . . . . [.}.7 7 7 7 7 7 7 u u u u u u u u u u u |.1.2 a . . . . . . # % .                     ",
"                  $ % % # . . . . . . . . 2.i 7 7 7 7 u u u 3.4.5.6.u u u u u u u 7.8.2 a . . . . . . % % .                     ",
"                  $ % 9.9.. . . . . . . . b 0.a.7 7 7 u u b.c.d.e.| f.u u u u u u g.[ h.y . . . . # . . % . .                   ",
"                  $ 9.9.# . . . . . . . . i.j.k.7 7 7 u u l.m.u u u F n.u u u u u o.p.a . . . . . . . . . . .                   ",
"                  $ 9.9.# . . . . . . . . q.r.s.r 7 u u t.u.u u u u v.w.u u u u x.y.z.c . . . . . . . . . . .                   ",
"                  $ 9.9.# . . . . . . . . A.x B.C.u u u 8 D.E.u u u F.X u u u G.U H.a . . . . . . . . . . . .                   ",
"                    $ % # . . . . . . . . . ! I.J.K.u u u L.M.N.O.8.P.3.u u 3.Q.U 2 a . . . . . . . . % . . .                   ",
"                    $ % % . . . . . . . . . Z y R.S.T.u u u U.D.V.W.X.u u 8 :.Y.Z./.y . . . . . . . . . . . .                   ",
"                    `. + +.+++.+. . . . . . . . y @+#+$+u u u 3.O.u u 3.8 %+%.&+2 ! . . . . . . . . *+=+-+;+>+,+                ",
"                    '+. . ++)+++. . . . . . . . . . . !+~+{+=.]+^+/+L.(+_+:+2 /.y Z . . . . . . . .  +<+[+}+|+1+                ",
"                    `.. . .+++.+. . . . . . . . . . . a 2+3+Y.4+5+6+7+8+2 h.a A.. . . . . . . . . .+9+0+a+b+c+1+                ",
"                    d+. . . . . . . . . . . . . . . . . ! 2 2 2 2 2 2 2 2 e+. . . . . . . . . . . ++f+g+h+i+j+,+                ",
"                      . .+++.+. . . . . . . . . . . . . b a ) 2 h.a c . . . . . . . . . . . . . . .+k+l+m+n+o+                  ",
"                      . p+q+p+. . . . . . . . . . . . . . . . . . . . . . . . . . . . . . . . . . . r+s+t+u+v+                  ",
"                      . w+x+w+. . . . . . . . . . . . . . . . . . . . . . . . . . . . . . . . . . .+y+z+A+B+                    ",
"                        C+D+C+. . . . . . . . . . . . . . . . . . . . . . . . . . . . . . . . .+r+k+E+F+G+                      ",
"                        . . . . . . . . . . . . . . . . . . . . . . . . . . . . . . . . . . . ++H+I+J+K+                        ",
"                          . . .+++.+. . . . . . . .+++.+. . . . . . . . . . . . . . . . . . . L+M+N+O+P+                        ",
"                          . . ++)+++. . . . . . . ++)+++. . . . . . . . . . . . . . .+++.+. .+k+N+Q+R+                          ",
"                            . .+++.+. . . . . . . .+++.+. . . . . . . .+++.+. . . .+S+)+r+r+T+U+V+W+                            ",
"                            . .+r+r+L+++.+. . . . . . . . . . . . . . ++)+++. . . ++q+X+Y+Z+U+V+`+R+                            ",
"                            d+++Z+Z+ @)+++. . . C+.@ +. . . . C+. C+.@+@@@#@.@. . $@%@d+$@W+&@*@=@                              ",
"                              =@*@*@-@;@>@C+. ,@'@c+        d+)@!@)@c+      c+`.'+`.~@                                          ",
"                                        c+)@!@)@~@                                                                              ",
"                                                                                                                                ",
"                                                                                                                                ",
"                                                                                                                                ",
"                                                                                                                                ",
"                                                                                                                                ",
"                                                                                                                                ",
"                                                                                                                                ",
"                                                                                                                                "};
