/* XPM */
static char * player5_xpm[] = {
"64 64 348 2",
"  	c #55A666",
". 	c #53A263",
"+ 	c #4F9C5F",
"@ 	c #55A565",
"# 	c #4E995D",
"$ 	c #3D7A49",
"% 	c #3B7647",
"& 	c #549260",
"* 	c #40804D",
"= 	c #509C60",
"- 	c #54A465",
"; 	c #519F62",
"> 	c #54A565",
", 	c #488E57",
"' 	c #346A40",
") 	c #1B3C22",
"! 	c #8D908D",
"~ 	c #B6B9B6",
"{ 	c #5D5D5D",
"] 	c #527F5A",
"^ 	c #4F7455",
"/ 	c #295432",
"( 	c #52A062",
"_ 	c #54A364",
": 	c #4B945A",
"< 	c #529E62",
"[ 	c #4A9159",
"} 	c #53A264",
"| 	c #41824F",
"1 	c #2C5B36",
"2 	c #3E473F",
"3 	c #B9B9B9",
"4 	c #FAFAFA",
"5 	c #EDEDED",
"6 	c #CACACA",
"7 	c #E4E4E4",
"8 	c #9B9B9B",
"9 	c #393939",
"0 	c #387144",
"a 	c #519E61",
"b 	c #458953",
"c 	c #509D60",
"d 	c #509D61",
"e 	c #30623A",
"f 	c #415D46",
"g 	c #588E63",
"h 	c #1D3F24",
"i 	c #8A958C",
"j 	c #607A65",
"k 	c #2A5834",
"l 	c #41814E",
"m 	c #52A163",
"n 	c #717271",
"o 	c #DADADA",
"p 	c #FFFFFF",
"q 	c #FDFDFD",
"r 	c #E7E7E7",
"s 	c #7C7C7C",
"t 	c #7F8180",
"u 	c #7D9480",
"v 	c #234B2B",
"w 	c #2C5C36",
"x 	c #438551",
"y 	c #366D41",
"z 	c #4C905A",
"A 	c #3B6E45",
"B 	c #343434",
"C 	c #8A8A8A",
"D 	c #D7D9D8",
"E 	c #B0B0B0",
"F 	c #D8D8D8",
"G 	c #E3E3E3",
"H 	c #737473",
"I 	c #26502F",
"J 	c #3F7E4C",
"K 	c #5D8D66",
"L 	c #E1E1E1",
"M 	c #DFDFDF",
"N 	c #D4D4D4",
"O 	c #717171",
"P 	c #000000",
"Q 	c #3B7748",
"R 	c #458853",
"S 	c #0C2110",
"T 	c #253127",
"U 	c #A5AEA6",
"V 	c #999999",
"W 	c #878787",
"X 	c #E5E5E5",
"Y 	c #FBFBFB",
"Z 	c #EBEBEB",
"` 	c #808080",
" .	c #234C2C",
"..	c #3D7B4A",
"+.	c #4B935A",
"@.	c #25502E",
"#.	c #A2A2A2",
"$.	c #F9F9F9",
"%.	c #FEFEFE",
"&.	c #DCDCDC",
"*.	c #3B3B3B",
"=.	c #478D56",
"-.	c #132E18",
";.	c #080808",
">.	c #BBBBBB",
",.	c #F0F0F0",
"'.	c #8C8C8C",
").	c #3A7546",
"!.	c #509E61",
"~.	c #243D29",
"{.	c #C6C6C6",
"].	c #204528",
"^.	c #519F61",
"/.	c #4F9B5F",
"(.	c #4A9259",
"_.	c #18361E",
":.	c #B1B1B1",
"<.	c #D0D1D0",
"[.	c #528E5E",
"}.	c #4C955B",
"|.	c #32673E",
"1.	c #545955",
"2.	c #E2E2E2",
"3.	c #F6F6F6",
"4.	c #E8E8E8",
"5.	c #FBFAFA",
"6.	c #8F8F91",
"7.	c #2F623A",
"8.	c #53A364",
"9.	c #55A566",
"0.	c #529F63",
"a.	c #559F67",
"b.	c #3E7C4B",
"c.	c #448652",
"d.	c #1C3F23",
"e.	c #A7A7A7",
"f.	c #5F615F",
"g.	c #32663D",
"h.	c #468A54",
"i.	c #295733",
"j.	c #7D877F",
"k.	c #BABCBA",
"l.	c #898989",
"m.	c #D5D5D5",
"n.	c #F8F9FF",
"o.	c #CCD0E8",
"p.	c #4D4F5D",
"q.	c #4E995E",
"r.	c #428450",
"s.	c #33343E",
"t.	c #9EBFBC",
"u.	c #3C6347",
"v.	c #192D1E",
"w.	c #838699",
"x.	c #EEEFF7",
"y.	c #FCFCFC",
"z.	c #F8F8F8",
"A.	c #6C6D6C",
"B.	c #2B5A35",
"C.	c #598762",
"D.	c #0B1F0F",
"E.	c #646464",
"F.	c #EFEFEF",
"G.	c #D7D7D7",
"H.	c #E6E9FC",
"I.	c #D6DCFC",
"J.	c #ADB2CD",
"K.	c #222529",
"L.	c #93B4AF",
"M.	c #B3C9D5",
"N.	c #75938C",
"O.	c #244D2D",
"P.	c #22492A",
"Q.	c #D3D9FA",
"R.	c #76798D",
"S.	c #CBD1F1",
"T.	c #DCE1FC",
"U.	c #F9FAFE",
"V.	c #BDBDBD",
"W.	c #C3C3C3",
"X.	c #DEDFDE",
"Y.	c #787878",
"Z.	c #295632",
"`.	c #010502",
" +	c #829285",
".+	c #686C69",
"++	c #4A4A4A",
"@+	c #DEDEDE",
"#+	c #F9F9FB",
"$+	c #EDEFFC",
"%+	c #D7DCFA",
"&+	c #CAD0EF",
"*+	c #83809C",
"=+	c #B7B0DA",
"-+	c #E0E2EE",
";+	c #E6E6E8",
">+	c #C4C3E9",
",+	c #B0A3D1",
"'+	c #BBC1DE",
")+	c #E4E8FC",
"!+	c #FCFCFE",
"~+	c #D6D6D6",
"{+	c #707A72",
"]+	c #6E8C73",
"^+	c #30633B",
"/+	c #070707",
"(+	c #7E7F7E",
"_+	c #DFE0DF",
":+	c #D3D4DA",
"<+	c #CCD0E6",
"[+	c #B9BFDC",
"}+	c #636677",
"|+	c #726489",
"1+	c #B0A4D2",
"2+	c #F1F3FD",
"3+	c #FDFDFF",
"4+	c #C0BDE4",
"5+	c #A591C5",
"6+	c #555467",
"7+	c #B9BEDB",
"8+	c #DCE0F6",
"9+	c #E7E8ED",
"0+	c #595959",
"a+	c #3E3F3E",
"b+	c #97A499",
"c+	c #060606",
"d+	c #1A3B21",
"e+	c #498F57",
"f+	c #4B945B",
"g+	c #2F613A",
"h+	c #305A38",
"i+	c #7A947E",
"j+	c #696B71",
"k+	c #6B6F82",
"l+	c #E1E1E2",
"m+	c #8E8F96",
"n+	c #9498AF",
"o+	c #A3A4AC",
"p+	c #BCC0BD",
"q+	c #656C66",
"r+	c #397345",
"s+	c #468B54",
"t+	c #254F2E",
"u+	c #CBCBCB",
"v+	c #1A1B20",
"w+	c #030408",
"x+	c #589062",
"y+	c #34683F",
"z+	c #54A464",
"A+	c #2E6039",
"B+	c #2E5F38",
"C+	c #8C998E",
"D+	c #B5BBB6",
"E+	c #4D985D",
"F+	c #A0A0A0",
"G+	c #D3D3D3",
"H+	c #C4C4C4",
"I+	c #F4F4F4",
"J+	c #CCCCCC",
"K+	c #EAEAEA",
"L+	c #83879C",
"M+	c #F5F6FE",
"N+	c #6C6C6C",
"O+	c #B3B3B3",
"P+	c #AEB3CF",
"Q+	c #BABFDC",
"R+	c #478C55",
"S+	c #193A20",
"T+	c #B0B8D2",
"U+	c #C9CEEE",
"V+	c #FBFBFE",
"W+	c #FCFCFF",
"X+	c #376F43",
"Y+	c #2A5733",
"Z+	c #DFE3FB",
"`+	c #EDEFFD",
" @	c #448752",
".@	c #3D7A4A",
"+@	c #999EB6",
"@@	c #A2A2C1",
"#@	c #B1AFCB",
"$@	c #D7D1E4",
"%@	c #E4E3F4",
"&@	c #EAEDFC",
"*@	c #E9EBFB",
"=@	c #C2BED5",
"-@	c #9B9EB8",
";@	c #503B65",
">@	c #6D5B86",
",@	c #C4C4E9",
"'@	c #D1D6F8",
")@	c #8774A3",
"!@	c #1D1326",
"~@	c #16341D",
"{@	c #CAD0F0",
"]@	c #CCD2F2",
"^@	c #CFD4F6",
"/@	c #FBFCFF",
"(@	c #FAFAFE",
"_@	c #CED2F4",
":@	c #CBD0F0",
"<@	c #BDC1E1",
"[@	c #D7D5D9",
"}@	c #9D9DBC",
"|@	c #478955",
"1@	c #1E1E1E",
"2@	c #D2D8F9",
"3@	c #BCC0E0",
"4@	c #534069",
"5@	c #D7D5DA",
"6@	c #386942",
"7@	c #827D9D",
"8@	c #A9AAC9",
"9@	c #EFEEF0",
"0@	c #8B869E",
"a@	c #E7EAFC",
"b@	c #F7F8FE",
"c@	c #FEFEFF",
"d@	c #B7B7CB",
"e@	c #97919F",
"f@	c #C9C7CD",
"g@	c #898193",
"h@	c #C3C7E8",
"i@	c #D4D7EE",
"j@	c #E7E8F5",
"k@	c #948FA3",
"l@	c #71698A",
"m@	c #DBD9DD",
"n@	c #E5E3E6",
"o@	c #F2F4FD",
"p@	c #EEF0F8",
"q@	c #F0EFF0",
"r@	c #5C5B5D",
"s@	c #C4CAE9",
"t@	c #A1A6C0",
"u@	c #488F57",
"v@	c #291D36",
"w@	c #535058",
"x@	c #909090",
"y@	c #E0E0E0",
"z@	c #F4F5FE",
"A@	c #E3E4EC",
"B@	c #BBBCC3",
"C@	c #FEFFFF",
"D@	c #716F73",
"E@	c #458553",
"F@	c #4F9A5E",
"G@	c #0F2614",
"                                                                                                                                ",
"                                                                                                                                ",
"                                                                                                                                ",
"                                                                                                                                ",
"                                                                                                                                ",
"                                                                                                                                ",
"                                                                                                                                ",
"                                                                                                                                ",
"                                                                                                                                ",
"                  . +     @                                                                                                     ",
"                # $ % & * = - ;                                                                           > @                   ",
"            - , ' ) ! ~ { ] ^ / (   @                                                           . ( _ : < [ , }                 ",
"          . | 1 2 3 4 5 6 7 8 9 0 a b c                                                   d   . e f g h i j k l m               ",
"          - 0 n o p p p q p r s t u v w .                                               x y z A B C D E F G H I J ;             ",
"            K L p p p p p p p M N r O P Q                                             R S T U V W X p 4 Y p Z `  ...m           ",
"          +.@.#.$.p p p p p p %.q p &.*.S =.                                        =.-.;.>.Y M Z p p p p p p ,.'.).-           ",
"          !.).~.{.%.p p p p p p p p p >.P ].c > ^.                          . /.  (._.P :.q p %.p p p p p p p p <.[.            ",
"            }.|.1.2.3.4.p p p p p p p 5.6.P 7.c 8.9.                    (.0.a.b.c.d.P e.Y p p p p p p p p p %.M f.g.c           ",
"            9.h.i.j.k.l.m.p p p p p p n.o.p.P q.              q.x r.r.r.P s.t.u.v.P w.x.p p p p p p p y.z.p X A.B.b -           ",
"              . h.R C.D.E.F.,.G.p p p H.I.J.K.L.M.N.O.O.P.P P P P P P P P s.Q.Q.Q.R.S.T.U.p p p p p Y V.W.X.Y.Z.x 8.            ",
"                8.- > |.`. +.+++@+p #+$+%+&+*+=+Q.-+r r r r r r r r r r r ;+Q.>+,+'+I.)+!+p p G.~+%.:.`.{+]+^+| .               ",
"                      c c.- Q /+(+_+:+<+[+}+|+1+Q.2+p p p p p p p p p p p 3+Q.4+5+6+7+8+9+Y &.0+a+b+c+d+e+!.f+.                 ",
"                            . g+h+i+j+k+l+p p p p p p p p p p p p p p p p p p p p p m+n+o+p+q+;.r+_ ..s+    @                   ",
"                              c [ . t+P p p p p p p p p p p p p p p p p p p p p p p u+v+w+x+y+r+z+                              ",
"                                b P L p p p p p p p p p p p p p p p p p p p p p p p p q >.P A+z+                                ",
"                                b P L p p p p p p p p p p p p p p p p p p p p p p p p p p P g.                                  ",
"                                b P L p p p p p p p p p p p p p p p p p p p p p p p p p p P g.                                  ",
"                              B+C+o 3.p p p p p p p p p p p p p p p p p p p p p p p p p p o D+B+E+                              ",
"                              P F+p p p p p p p p p p p p p p p p p p p p p p p p p p p p p G+P (.                              ",
"                              P F+p p p p p p p p p p p p p p p p p p p p p p p p p p p p p G+P (.                              ",
"                              P F+p p p p p p p p p p p p p p p p p p p p p p p p p p p p p G+P (.                              ",
"                              P F+p p p p p P l.p p p p p p p p p p p p p p p H+P 5 p p p p G+P (.                              ",
"                              P F+p p p p p P l.p p p p p p y.r I+p p p p p p H+P 5 p p p p G+P (.                              ",
"                              P F+p p p p p P l.p p p p p p 5 P H+p p p p p p H+P 5 p p p p G+P (.                              ",
"                              P F+p p p p p J+o p p p p p p 5 P H+p p p p p p K+J+z.p p p p G+P (.                              ",
"                              P F+p p p p p p p p p p p p p 5 P H+p p p p p p p p p p p p p G+P (.                              ",
"                              P L+Q.M+p p p p p p p p p p P N+p O+P $.p p p p p p p p p p Q.P+P (.                              ",
"                              P L+Q.M+p p p p p p p p p p P N+p O+P $.p p p p p p p p p p Q.P+P (.                              ",
"                                b P Q+Q.p p p p p p p p p p p p p p p p p p p p p p p Q.Q.P g.                                  ",
"                                R+S+T+U+V+V+V+W+p p p p p p p p p p p p p p p 3+V+V+V+U+U+S+X+                                  ",
"                                    Y+P Q.Q.Q.Z+p p p p p p p p p p p p p p p `+Q.Q.Q.P P                                       ",
"                                     @.@+@+@@@#@$@%@&@&@&@&@&@&@&@&@&@&@&@*@$@=@@@-@+@.@.@                                      ",
"                                        P P ;@>@5+,@Q.Q.Q.Q.Q.Q.Q.Q.Q.Q.Q.'@5+)@;@!@P                                           ",
"                                    7.~@{@{@S.]@^@$+/@/@/@/@/@/@/@/@/@/@/@(@^@_@S.:@{@~@~@                                      ",
"                                    Y+P Q.Q.Q.Q.Q.2+p p p p p p p p p p p 3+Q.Q.Q.Q.Q.P P                                       ",
"                                b P L p p p Q.<@;@[@p p p p p p p p p p p 4 ;@}@Q.U.p p p P g.                                  ",
"                              @ |@1@L p p p 2@3@4@5@p p p p p p p p p p p 4 4@}@2@U.p p p 1@6@@                                 ",
"                              P F+p p p p p ;@7@Q.2+p p p p p p p p p p p 3+Q.8@;@9@p p p p G+P (.                              ",
"                              P F+p p p p p ;@0@a@b@p p p p p p p p p p p c@a@d@;@9@p p p p G+P (.                              ",
"                              P F+p p p p p ;@e@p p p p p p p p p p p p p p p f@;@9@p p p p G+P (.                              ",
"                              P F+p p p g@g@h@i@p p p p p p p p p p p p p p p j@h@k@g@p p p G+P (.                              ",
"                              P F+p p p ;@;@Q.Z+p p p p p p p p p p p p p p p `+Q.l@;@p p p G+P (.                              ",
"                                b P P P P P p p p p p p p p p p p p p p p p p p p N+P P P P g.                                  ",
"                                b P P P P P p p p p p p p p p p p p p p p p p p p N+P P P P g.                                  ",
"                                        P P p p p p p p p p p p p p p p p p p p p N+P                                           ",
"                                        P P m@n@p p p p p o@p@G.9+o@c@p p p p q@m@r@P                                           ",
"                                        P P ;@e@p p p p p Q.s@P t@Q.3+p p p p f@;@!@P                                           ",
"                                        u@u@v@w@x@y@p p p z@A@P B@z@C@p p Y x@D@v@E@u@                                          ",
"                                            P P P G+p p p p 5 P H+p p p p $.P P P F@                                            ",
"                                                  g.P P P P P P P P P P P G@                                                    ",
"                                                  g.P P P P P P P P P P P G@                                                    ",
"                                                                                                                                ",
"                                                                                                                                ",
"                                                                                                                                "};
