/* XPM */
static char * sly_cooper_xpm[] = {
"64 64 91 1",
" 	c #55A666",
".	c #BFBFBF",
"+	c #FFFFFF",
"@	c #C4C4C4",
"#	c #DBDBDB",
"$	c #E3E3E3",
"%	c #939393",
"&	c #D8D8D8",
"*	c #F4F4F4",
"=	c #BCBCBC",
"-	c #D6D6D6",
";	c #DDDDDD",
">	c #FCFDFF",
",	c #BABBBC",
"'	c #FEFEFF",
")	c #D3D9FA",
"!	c #9BA0B9",
"~	c #EDEFFD",
"{	c #E7EAFC",
"]	c #DEE3FB",
"^	c #EAEDFC",
"/	c #FDFDFF",
"(	c #BBB6DF",
"_	c #A0A0A0",
":	c #E9E9E9",
"<	c #A2A2A2",
"[	c #C7C7C7",
"}	c #000000",
"|	c #9B9B9B",
"1	c #3C3C3C",
"2	c #EEF0FD",
"3	c #F2F3FD",
"4	c #D7D7D7",
"5	c #CACACA",
"6	c #ACACAC",
"7	c #ADADAD",
"8	c #FAFAFE",
"9	c #DDE2FB",
"0	c #818181",
"a	c #FAFAFA",
"b	c #D7DCFA",
"c	c #F5F6FE",
"d	c #F8F8F8",
"e	c #F6F6F6",
"f	c #FBFBFB",
"g	c #B7BBD5",
"h	c #F4F5FE",
"i	c #B0B6D2",
"j	c #B6BBD8",
"k	c #E8EBFC",
"l	c #A6ABC5",
"m	c #C0C6E4",
"n	c #C3C7E7",
"o	c #F1EFF6",
"p	c #F4F4FA",
"q	c #F8F8FE",
"r	c #F7F8FE",
"s	c #D9DAEE",
"t	c #A591C5",
"u	c #BEB9E1",
"v	c #D1D6F8",
"w	c #9B9FB8",
"x	c #B4B9D5",
"y	c #B8BBDB",
"z	c #C7C7EC",
"A	c #DEDFF5",
"B	c #F3F4FD",
"C	c #F2F4FD",
"D	c #E9E5EF",
"E	c #CFCFE4",
"F	c #E9ECFC",
"G	c #F4F6FE",
"H	c #A6A7C6",
"I	c #D1D7F8",
"J	c #443256",
"K	c #503B65",
"L	c #81709B",
"M	c #9682B4",
"N	c #968F9E",
"O	c #DFE3FB",
"P	c #ADB0C5",
"Q	c #8E7DAA",
"R	c #BBBBBB",
"S	c #DEDEDE",
"T	c #BDC2E0",
"U	c #CFD5F5",
"V	c #B9B9B9",
"W	c #FDFDFD",
"X	c #DCDCDC",
"Y	c #BBC0DE",
"Z	c #CDD3F3",
"                                                                ",
"                                                                ",
"                                                                ",
"                                                                ",
"                                                                ",
"                 .....                 .....                    ",
"                 +++++                 +++++                    ",
"                 +++++++             @++++++                    ",
"                 +++++++             @++++++                    ",
"                 +++++++             @++++++                    ",
"                 #$+++++            %&++++*#                    ",
"                   ++++++=          ++++++-                     ",
"                   ++++++=          ++++++-                     ",
"                   ++++++=          ++++++-                     ",
"                    ;++++=          +++++                       ",
"                    ;+++>,          >'+++                       ",
"                    ;+++)!          )~+++                       ",
"                      {{)!          )]{                         ",
"                      )))!          )))                         ",
"                        )^+++++++++/)(                          ",
"                        )^+++++++++/)(                          ",
"                    ;++++++++++++++++++++                       ",
"                   _:++++++++++++++++++++_                      ",
"                   +++++++++++++++++++++++-                     ",
"                   +++++++++++++++++++++++-                     ",
"                   +++++++++++++++++++++++-                     ",
"                 +++++++++++++++++++++++++++                    ",
"                 +++++++++++++++++++++++++++                    ",
"                 +++++++++++++++++++++++++++                    ",
"                 ++++++++&<++++++++++++++<[+                    ",
"                 ++++++++=}++++++++++++++}|+                    ",
"                 ++++++++=}+++++++}1+++++}|+                    ",
"                 ++++++++=}+++++++}1+++++}|+                    ",
"                 +++++++++++++++++}1++++++++                    ",
"                 23+++++++++++++45675:++++82                    ",
"                 )9+++++++++++++0}+a}@++++3)                    ",
"                   bc+++++++++++de++ef+++bg                     ",
"                   )h++++++++++++++++++++)i                     ",
"                    j)))+++++++++++++k)))                       ",
"                    lmnnopqqqqqqqqqrosnmm                       ",
"                        tu)))))))))vt                           ",
"                    wxyyzABBBBBBBBBCDEy                         ",
"                    j))))^+++++++++++k)                         ",
"                   +++))  +++++++++++++))                       ",
"                   +++))  +++++++++++++))                       ",
"                 +++++  )^+++++++++++++)))i                     ",
"                 +++++  FG+++++++++++++HH)i                     ",
"                 +++++  +++++++++++++++  )i                     ",
"                 +++  II+++++++++++++++  )i                     ",
"                 +++  ))+++++++++++++++  )i                     ",
"                      +++++++++++++++++                         ",
"                      +++++++++++++++8c                         ",
"                    JK+++++++++++++++k)                         ",
"                    LMNN+++++O    OOOP                          ",
"                    QtKK+++++)    )))                           ",
"                         R++++S T))U                            ",
"                         VWWWWX YIIZ                            ",
"                                                                ",
"                                                                ",
"                                                                ",
"                                                                ",
"                                                                ",
"                                                                ",
"                                                                "};
