/* XPM */
static char * player_xpm[] = {
"64 64 290 2",
"  	c #55A666",
". 	c #488F57",
"+ 	c #488E56",
"@ 	c #4E995E",
"# 	c #4F9C5F",
"$ 	c #295733",
"% 	c #25502E",
"& 	c #40804D",
"* 	c #448853",
"= 	c #499058",
"- 	c #3D7A49",
"; 	c #B6B8B7",
"> 	c #BBBBBB",
", 	c #93A195",
"' 	c #52A062",
") 	c #468B55",
"! 	c #889B8B",
"~ 	c #54A465",
"{ 	c #397446",
"] 	c #010502",
"^ 	c #F9F9F9",
"/ 	c #FFFFFF",
"( 	c #C4C4C4",
"_ 	c #4F9A5E",
": 	c #32673D",
"< 	c #B3B3B3",
"[ 	c #53A263",
"} 	c #397345",
"| 	c #000000",
"1 	c #E4E4E4",
"2 	c #BCBCBC",
"3 	c #5F8665",
"4 	c #3C7949",
"5 	c #509C60",
"6 	c #9EA8A0",
"7 	c #6C6C6C",
"8 	c #4A9259",
"9 	c #D3D3D3",
"0 	c #41824F",
"a 	c #295632",
"b 	c #DCDCDC",
"c 	c #E1E1E1",
"d 	c #A1A1A1",
"e 	c #888888",
"f 	c #5E9067",
"g 	c #DFDFDF",
"h 	c #FBFBFB",
"i 	c #A0A8A1",
"j 	c #53A364",
"k 	c #4F9B5F",
"l 	c #4A9159",
"m 	c #888A88",
"n 	c #8A8A8A",
"o 	c #E5E5E5",
"p 	c #E0E0E0",
"q 	c #2A5834",
"r 	c #7D8B7F",
"s 	c #F5F5F5",
"t 	c #F2F2F2",
"u 	c #6D8E72",
"v 	c #55A565",
"w 	c #0F2614",
"x 	c #898989",
"y 	c #EDEDED",
"z 	c #3F7E4C",
"A 	c #3E7C4B",
"B 	c #C0C0C0",
"C 	c #AFB3B0",
"D 	c #4B945A",
"E 	c #3F3F3F",
"F 	c #1F4326",
"G 	c #EDF0FD",
"H 	c #EAEDFD",
"I 	c #7D7F88",
"J 	c #F8F9FE",
"K 	c #244D2D",
"L 	c #445E48",
"M 	c #E7E7E7",
"N 	c #EFEFF2",
"O 	c #F7F8FE",
"P 	c #D9DEFB",
"Q 	c #D3D9FA",
"R 	c #4C965C",
"S 	c #707486",
"T 	c #ECEEFD",
"U 	c #2F623A",
"V 	c #478D56",
"W 	c #4E8D5A",
"X 	c #959595",
"Y 	c #BDBFCC",
"Z 	c #E2E5FC",
"` 	c #D5DBFA",
" .	c #2E5F38",
"..	c #DDE1FB",
"+.	c #499158",
"@.	c #8786A1",
"#.	c #C3C0E7",
"$.	c #D1D6F7",
"%.	c #AAAAAA",
"&.	c #B5B7C2",
"*.	c #C8C9EE",
"=.	c #766B8E",
"-.	c #AB9ACB",
";.	c #CED1F4",
">.	c #F3F3F3",
",.	c #ECEDF5",
"'.	c #BAB4DE",
").	c #4A7D53",
"!.	c #C9C6CF",
"~.	c #D8D2E4",
"{.	c #E8E9F9",
"].	c #FAFBFF",
"^.	c #DFDCED",
"/.	c #40814E",
"(.	c #4D975C",
"_.	c #458853",
":.	c #9C9E9D",
"<.	c #A0A0A0",
"[.	c #F4F4F4",
"}.	c #79947D",
"|.	c #54A565",
"1.	c #3E7D4B",
"2.	c #E8E9E8",
"3.	c #FDFDFD",
"4.	c #A8ACA9",
"5.	c #C8C8C8",
"6.	c #F6F6F6",
"7.	c #C3C3C3",
"8.	c #ABABAB",
"9.	c #EBEBEB",
"0.	c #E5E7F7",
"a.	c #EAEAEA",
"b.	c #FCFDFF",
"c.	c #A4A6B1",
"d.	c #CED4F4",
"e.	c #F9FAFE",
"f.	c #9398AF",
"g.	c #498F57",
"h.	c #989DB4",
"i.	c #9B9FB8",
"j.	c #EBEEFD",
"k.	c #F1F1F1",
"l.	c #E1E4F4",
"m.	c #738C89",
"n.	c #18381F",
"o.	c #102815",
"p.	c #D0D6F5",
"q.	c #FDFDFF",
"r.	c #FEFEFF",
"s.	c #BFC6E3",
"t.	c #41814E",
"u.	c #3F7F4D",
"v.	c #9397AF",
"w.	c #E8EBFC",
"x.	c #FCFCFF",
"y.	c #F0F2FE",
"z.	c #8A94A5",
"A.	c #3D6049",
"B.	c #B9BEDB",
"C.	c #BBBFDD",
"D.	c #BDC0E0",
"E.	c #E6E4EF",
"F.	c #ECE9F2",
"G.	c #F5F6FE",
"H.	c #F2F3FB",
"I.	c #CFD0E7",
"J.	c #33683E",
"K.	c #4C905C",
"L.	c #6F7385",
"M.	c #787790",
"N.	c #817C9C",
"O.	c #B8ADCE",
"P.	c #C0B5D5",
"Q.	c #DFE3FB",
"R.	c #D8D9F3",
"S.	c #9B93B3",
"T.	c #4C955B",
"U.	c #467F55",
"V.	c #9498B0",
"W.	c #999AB6",
"X.	c #9D9EBC",
"Y.	c #B8B3DB",
"Z.	c #BCB7DF",
"`.	c #E8EBFD",
" +	c #E4E4F6",
".+	c #D4CDE2",
"++	c #B4B0CB",
"@+	c #0D2311",
"#+	c #353F40",
"$+	c #CFD5F5",
"%+	c #CFD5F6",
"&+	c #D1D6F8",
"*+	c #D1D7F8",
"=+	c #FDFEFF",
"-+	c #FCFCFD",
";+	c #E1E3F9",
">+	c #BEBEC0",
",+	c #E0E4FC",
"'+	c #ABADCC",
")+	c #A3A4C3",
"!+	c #F2F3FE",
"~+	c #55A566",
"{+	c #1B2C1E",
"]+	c #131313",
"^+	c #EDEFFD",
"/+	c #726A8B",
"(+	c #523E67",
"_+	c #0E0E12",
":+	c #23462C",
"<+	c #3C7848",
"[+	c #B8BAB9",
"}+	c #BDBDBD",
"|+	c #DBDCE6",
"1+	c #A2A3C2",
"2+	c #A4A4C3",
"3+	c #9BA0B9",
"4+	c #919BAE",
"5+	c #C9C7CD",
"6+	c #503B65",
"7+	c #CFD3EC",
"8+	c #DDE2FB",
"9+	c #C1C5E5",
"0+	c #C4CAE9",
"a+	c #E4E4EF",
"b+	c #F3F5FE",
"c+	c #8885A4",
"d+	c #CFCDD2",
"e+	c #B9B7C6",
"f+	c #9897B6",
"g+	c #F3F3F6",
"h+	c #71667F",
"i+	c #A2A2BE",
"j+	c #CBD0F1",
"k+	c #F8F9FD",
"l+	c #B7B9B8",
"m+	c #B8B8B8",
"n+	c #382948",
"o+	c #A8A8B8",
"p+	c #909AAD",
"q+	c #07040B",
"r+	c #B7B5B9",
"s+	c #130D19",
"t+	c #64517B",
"u+	c #B4AFBB",
"v+	c #EEEDEF",
"w+	c #EFF0F1",
"x+	c #ECECEC",
"y+	c #D8DBF0",
"z+	c #C3C9E8",
"A+	c #204528",
"B+	c #1F1A27",
"C+	c #8F7CAC",
"D+	c #9B90AD",
"E+	c #A9A4AF",
"F+	c #F5F4F5",
"G+	c #F6F7FE",
"H+	c #E3E7FC",
"I+	c #B2B4BB",
"J+	c #9E9E9E",
"K+	c #ACB0C4",
"L+	c #82869B",
"M+	c #458953",
"N+	c #3B6847",
"O+	c #8776A1",
"P+	c #6E5E85",
"Q+	c #402F52",
"R+	c #C4C3C5",
"S+	c #D1D1D1",
"T+	c #F6F8FE",
"U+	c #E4E8FC",
"V+	c #7A7C87",
"W+	c #928FAF",
"X+	c #CAD0F0",
"Y+	c #ADB2CD",
"Z+	c #728788",
"`+	c #4E985E",
" @	c #41384F",
".@	c #342C40",
"+@	c #1B1225",
"@@	c #626162",
"#@	c #686868",
"$@	c #FAFAFF",
"%@	c #868689",
"&@	c #C7CCEC",
"*@	c #BEC3E1",
"=@	c #555866",
"-@	c #518861",
";@	c #636363",
">@	c #888CA1",
",@	c #4D985D",
"                                                                                                                                ",
"                                                                                                                                ",
"                                                                                                                                ",
"                                                                                                                                ",
"                                  . + + + + @                                   + + + + + #                                     ",
"                                  $ % % % % &                                   % % % % % *                                     ",
"                              = - ; > > > > , - '                           ) - > > > > > ! - ~                                 ",
"                              { ] ^ / / / / ( ] _                           : ] / / / / / < ] [                                 ",
"                              } | ^ / / / / 1 2 3 4                     5 4 6 2 / / / / / < | [                                 ",
"                              } | ^ / / / / / / 7 |                     8 | 9 / / / / / / < | [                                 ",
"                              } | ^ / / / / / / 7 |                     8 | 9 / / / / / / < | [                                 ",
"                              0 a b c / / / / / d e 8 8               8 f e g / / / / h c i a j                                 ",
"                              k l m n / / / / / o p q q               q r p s / / / / t n u l v                                 ",
"                                  w | / / / / / / / | |               | x / / / / / / y | z                                     ",
"                                  w | / / / / / / / | |               | x / / / / / / y | z                                     ",
"                                  A 4 2 B / / / / / | |               | x / / / / / 2 C 4 D                                     ",
"                                      | E / / / / / | |               | x / / / / / | F                                         ",
"                                      | E / / / G H | |               | I H J / / / | F                                         ",
"                                      K L M N O P Q | | R R R R R R R | S Q T O M M K U                                         ",
"                                      V W X Y Z ` Q | |  . . . . . . .| S Q ..Z X X V +.                                        ",
"                                        [ | @.#.$.Q %.%.%.%.%.%.%.%.%.%.&.Q *.#.| |                                             ",
"                                        [ | =.-.;.Q >.>.>.>.>.>.>.>.>.>.,.Q '.-.| |                                             ",
"                                      4 ).2 !.~.{.H / / / / / / / / / / ].H ^.~.2 2 4 /.                                        ",
"                                      | E / / / / / / / / / / / / / / / / / / / / / | F                                         ",
"                                  A 4 2 B / / / / / / / / / / / / / / / / / / / / / 2 C 4 D                                     ",
"                                  w | / / / / / / / / / / / / / / / / / / / / / / / / y | z                                     ",
"                                  w | / / / / / / / / / / / / / / / / / / / / / / / / y | z                                     ",
"                              (._.:.<./ / / / / / / / / / / / / / / / / / / / / / / / [.<.}._.|.                                ",
"                              1.F 2.y / / / / / / / / / / / / / / / / / / / / / / / / 3.y 4.F j                                 ",
"                              } | ^ / / / / / / / / / / / / / / / / / / / / / / / / / / / < | [                                 ",
"                              } | ^ / / / / / / / / / / / / / / / / / / / / / / / / / / / < | [                                 ",
"                              } | ^ / / / / / / / / 2 2 / / / / / / / / / / / / / / 2 5./ < | [                                 ",
"                              } | ^ / / / / / / / / | | / / / / / / / >.6./ / / / / | 7 / < | [                                 ",
"                              } | ^ / / / / / / / / | | / / / / / / / %.7./ / / / / | 7 / < | [                                 ",
"                              } | ^ / / / / / / / / X X / / / / / / / | x / / / / / X 8./ < | [                                 ",
"                              } | ^ / / / / / / / / M M / / / / / / / | x / / / / / M 9./ < | [                                 ",
"                              } | 0.H / / / / / / / / / / / / / / 2 2 2 2 2 a./ / / / b.H c.| [                                 ",
"                              } | d.Q / / / / / / / / / / / / / / | | / c | 9 / / / / e.Q f.| [                                 ",
"                              g.4 h.i.H j./ / / / / / / / / / / / 2 2 / k.2 a./ / / H l.i.m.4 ~                                 ",
"                                  n.o.d.p.q.q.q./ / / / / / / / / / / / / / r.q.q.q.d.s.o./.                                    ",
"                                  t.u.v.h.w.w.w.x./ / / / / / / / / / / / / y.w.w.w.v.z.u.R                                     ",
"                                      q A.B.C.D.E.F.G.G.G.G.G.G.G.G.G.G.H.F.I.D.B.B.q J.                                        ",
"                                      8 K.L.M.N.O.P.Q.Q.Q.Q.Q.Q.Q.Q.Q.Q.R.P.S.N.L.L.8 T.                                        ",
"                                      z U.V.W.X.Y.Z.`.`.`.`.`.`.`.`.`.`. +.+++X.| |                                             ",
"                                      @+#+$+%+%+&+*+=+=+=+=+=+=+=+=+=+=+q.-+;+%+| |                                             ",
"                                  A 4 2 >+H ,+Q '+)+/ / / / / / / / / / / / !+H i.i.4 /.                                        ",
"                                ~+{+]+/ / / ^+Q /+(+/ / / / / / / / / / / / / / Q Q _+:+~+                                      ",
"                              . <+[+}+/ / / |+1+)+2+/ / / / / / / / / / / / / / Q Q 3+4+<+D                                     ",
"                              } | ^ / / / / 5+6+7+8+/ / / / / / / / / / / / / / 9+9+Q 0+| z                                     ",
"                              } | ^ / / / / 5+6+a+b+/ / / / / / / / / / / / / / c+c+Q 0+| z                                     ",
"                              } | ^ / / 3.d+e+f+g+/ / / / / / / / / / / / / / / 6+6+Q 0+| z                                     ",
"                              } | ^ / / h h+i+j+k+/ / / / / / / / / / / / / / / 6+6+Q 0+| z                                     ",
"                              g.4 l+2 2 m+n+o+H b./ / / / / / / / / / / / / / / n+n+i.p+4 D                                     ",
"                                  w | | | | < / / / / / / / / / / / / / / / / / | | | F                                         ",
"                                  A 4 | q+n+r+/ / / / / / / / / / / / / / / !+H | | 4 /.                                        ",
"                                      | s+t+u+v+3./ / / / q.e.w+x+v+v+e.e.e.y+z+A+A+                                            ",
"                                      | B+C+D+E+F+/ / / / G+H+I+J+E+E+H+H+H+K+L+M+M+                                            ",
"                                      J.N+O+P+Q+R+S+/ / / T+U+V+| W+W+Q X+Y+Z+J.                                                ",
"                                      k `+ @.@+@@@#@/ / / =+$@%@| &@&@Q *@=@-@k                                                 ",
"                                        ~ 4 4 4 4 4 2 2 2 2 2 ;@| i.i.i.>@| M+                                                  ",
"                                                    | | | | | | | | | | | | M+                                                  ",
"                                                    4 4 4 4 4 4 4 4 4 4 4 4 ,@                                                  ",
"                                                                                                                                ",
"                                                                                                                                "};
