/* XPM */
static char * player3_xpm[] = {
"64 64 290 2",
"  	c #55A666",
". 	c #4F9C5F",
"+ 	c #488E56",
"@ 	c #4E995E",
"# 	c #488F57",
"$ 	c #448853",
"% 	c #25502E",
"& 	c #40804D",
"* 	c #295733",
"= 	c #54A465",
"- 	c #3D7A49",
"; 	c #889B8B",
"> 	c #BBBBBB",
", 	c #468B55",
"' 	c #52A062",
") 	c #93A195",
"! 	c #B6B8B7",
"~ 	c #499058",
"{ 	c #53A263",
"] 	c #010502",
"^ 	c #B3B3B3",
"/ 	c #FFFFFF",
"( 	c #32673D",
"_ 	c #4F9A5E",
": 	c #C4C4C4",
"< 	c #F9F9F9",
"[ 	c #397446",
"} 	c #000000",
"| 	c #BCBCBC",
"1 	c #9EA8A0",
"2 	c #3C7949",
"3 	c #509C60",
"4 	c #5F8665",
"5 	c #E4E4E4",
"6 	c #397345",
"7 	c #D3D3D3",
"8 	c #4A9259",
"9 	c #6C6C6C",
"0 	c #53A364",
"a 	c #295632",
"b 	c #A0A8A1",
"c 	c #E1E1E1",
"d 	c #FBFBFB",
"e 	c #DFDFDF",
"f 	c #888888",
"g 	c #5E9067",
"h 	c #A1A1A1",
"i 	c #DCDCDC",
"j 	c #41824F",
"k 	c #55A565",
"l 	c #4A9159",
"m 	c #6D8E72",
"n 	c #8A8A8A",
"o 	c #F2F2F2",
"p 	c #F5F5F5",
"q 	c #E0E0E0",
"r 	c #7D8B7F",
"s 	c #2A5834",
"t 	c #E5E5E5",
"u 	c #888A88",
"v 	c #4F9B5F",
"w 	c #3F7E4C",
"x 	c #EDEDED",
"y 	c #898989",
"z 	c #0F2614",
"A 	c #4B945A",
"B 	c #AFB3B0",
"C 	c #C0C0C0",
"D 	c #3E7C4B",
"E 	c #1F4326",
"F 	c #3F3F3F",
"G 	c #F8F9FE",
"H 	c #EAEDFD",
"I 	c #7D7F88",
"J 	c #EDF0FD",
"K 	c #2F623A",
"L 	c #244D2D",
"M 	c #E7E7E7",
"N 	c #F7F8FE",
"O 	c #ECEEFD",
"P 	c #D3D9FA",
"Q 	c #707486",
"R 	c #4C965C",
"S 	c #D9DEFB",
"T 	c #EFEFF2",
"U 	c #445E48",
"V 	c #499158",
"W 	c #478D56",
"X 	c #959595",
"Y 	c #E2E5FC",
"Z 	c #DDE1FB",
"` 	c #2E5F38",
" .	c #D5DBFA",
"..	c #BDBFCC",
"+.	c #4E8D5A",
"@.	c #C3C0E7",
"#.	c #C8C9EE",
"$.	c #B5B7C2",
"%.	c #AAAAAA",
"&.	c #D1D6F7",
"*.	c #8786A1",
"=.	c #AB9ACB",
"-.	c #BAB4DE",
";.	c #ECEDF5",
">.	c #F3F3F3",
",.	c #CED1F4",
"'.	c #766B8E",
").	c #40814E",
"!.	c #D8D2E4",
"~.	c #DFDCED",
"{.	c #FAFBFF",
"].	c #E8E9F9",
"^.	c #C9C6CF",
"/.	c #4A7D53",
"(.	c #54A565",
"_.	c #458853",
":.	c #79947D",
"<.	c #A0A0A0",
"[.	c #F4F4F4",
"}.	c #9C9E9D",
"|.	c #4D975C",
"1.	c #A8ACA9",
"2.	c #FDFDFD",
"3.	c #E8E9E8",
"4.	c #3E7D4B",
"5.	c #C8C8C8",
"6.	c #F6F6F6",
"7.	c #C3C3C3",
"8.	c #ABABAB",
"9.	c #EBEBEB",
"0.	c #A4A6B1",
"a.	c #FCFDFF",
"b.	c #EAEAEA",
"c.	c #E5E7F7",
"d.	c #9398AF",
"e.	c #F9FAFE",
"f.	c #CED4F4",
"g.	c #738C89",
"h.	c #9B9FB8",
"i.	c #E1E4F4",
"j.	c #F1F1F1",
"k.	c #EBEEFD",
"l.	c #989DB4",
"m.	c #498F57",
"n.	c #102815",
"o.	c #BFC6E3",
"p.	c #FDFDFF",
"q.	c #FEFEFF",
"r.	c #D0D6F5",
"s.	c #18381F",
"t.	c #3F7F4D",
"u.	c #8A94A5",
"v.	c #9397AF",
"w.	c #E8EBFC",
"x.	c #F0F2FE",
"y.	c #FCFCFF",
"z.	c #41814E",
"A.	c #33683E",
"B.	c #B9BEDB",
"C.	c #BDC0E0",
"D.	c #CFD0E7",
"E.	c #ECE9F2",
"F.	c #F2F3FB",
"G.	c #F5F6FE",
"H.	c #E6E4EF",
"I.	c #BBBFDD",
"J.	c #3D6049",
"K.	c #4C955B",
"L.	c #6F7385",
"M.	c #817C9C",
"N.	c #9B93B3",
"O.	c #C0B5D5",
"P.	c #D8D9F3",
"Q.	c #DFE3FB",
"R.	c #B8ADCE",
"S.	c #787790",
"T.	c #4C905C",
"U.	c #9D9EBC",
"V.	c #B4B0CB",
"W.	c #D4CDE2",
"X.	c #E4E4F6",
"Y.	c #E8EBFD",
"Z.	c #BCB7DF",
"`.	c #B8B3DB",
" +	c #999AB6",
".+	c #9498B0",
"++	c #467F55",
"@+	c #CFD5F6",
"#+	c #E1E3F9",
"$+	c #FCFCFD",
"%+	c #FDFEFF",
"&+	c #D1D7F8",
"*+	c #D1D6F8",
"=+	c #CFD5F5",
"-+	c #353F40",
";+	c #0D2311",
">+	c #F2F3FE",
",+	c #A3A4C3",
"'+	c #ABADCC",
")+	c #E0E4FC",
"!+	c #BEBEC0",
"~+	c #55A566",
"{+	c #23462C",
"]+	c #0E0E12",
"^+	c #523E67",
"/+	c #726A8B",
"(+	c #EDEFFD",
"_+	c #131313",
":+	c #1B2C1E",
"<+	c #3C7848",
"[+	c #919BAE",
"}+	c #9BA0B9",
"|+	c #A4A4C3",
"1+	c #A2A3C2",
"2+	c #DBDCE6",
"3+	c #BDBDBD",
"4+	c #B8BAB9",
"5+	c #C4CAE9",
"6+	c #C1C5E5",
"7+	c #DDE2FB",
"8+	c #CFD3EC",
"9+	c #503B65",
"0+	c #C9C7CD",
"a+	c #8885A4",
"b+	c #F3F5FE",
"c+	c #E4E4EF",
"d+	c #F3F3F6",
"e+	c #9897B6",
"f+	c #B9B7C6",
"g+	c #CFCDD2",
"h+	c #F8F9FD",
"i+	c #CBD0F1",
"j+	c #A2A2BE",
"k+	c #71667F",
"l+	c #909AAD",
"m+	c #382948",
"n+	c #A8A8B8",
"o+	c #B8B8B8",
"p+	c #B7B9B8",
"q+	c #B7B5B9",
"r+	c #07040B",
"s+	c #204528",
"t+	c #C3C9E8",
"u+	c #D8DBF0",
"v+	c #EEEDEF",
"w+	c #ECECEC",
"x+	c #EFF0F1",
"y+	c #B4AFBB",
"z+	c #64517B",
"A+	c #130D19",
"B+	c #458953",
"C+	c #82869B",
"D+	c #ACB0C4",
"E+	c #E3E7FC",
"F+	c #A9A4AF",
"G+	c #9E9E9E",
"H+	c #B2B4BB",
"I+	c #F6F7FE",
"J+	c #F5F4F5",
"K+	c #9B90AD",
"L+	c #8F7CAC",
"M+	c #1F1A27",
"N+	c #728788",
"O+	c #ADB2CD",
"P+	c #CAD0F0",
"Q+	c #928FAF",
"R+	c #7A7C87",
"S+	c #E4E8FC",
"T+	c #F6F8FE",
"U+	c #D1D1D1",
"V+	c #C4C3C5",
"W+	c #402F52",
"X+	c #6E5E85",
"Y+	c #8776A1",
"Z+	c #3B6847",
"`+	c #518861",
" @	c #555866",
".@	c #BEC3E1",
"+@	c #C7CCEC",
"@@	c #868689",
"#@	c #FAFAFF",
"$@	c #686868",
"%@	c #626162",
"&@	c #1B1225",
"*@	c #342C40",
"=@	c #41384F",
"-@	c #4E985E",
";@	c #888CA1",
">@	c #636363",
",@	c #4D985D",
"                                                                                                                                ",
"                                                                                                                                ",
"                                                                                                                                ",
"                                                                                                                                ",
"                                . + + + + +                                   @ + + + + #                                       ",
"                                $ % % % % %                                   & % % % % *                                       ",
"                            = - ; > > > > > - ,                           ' - ) > > > > ! - ~                                   ",
"                            { ] ^ / / / / / ] (                           _ ] : / / / / < ] [                                   ",
"                            { } ^ / / / / / | 1 2 3                     2 4 | 5 / / / / < } 6                                   ",
"                            { } ^ / / / / / / 7 } 8                     } 9 / / / / / / < } 6                                   ",
"                            { } ^ / / / / / / 7 } 8                     } 9 / / / / / / < } 6                                   ",
"                            0 a b c d / / / / e f g 8               8 8 f h / / / / / c i a j                                   ",
"                            k l m n o / / / / p q r s               s s q t / / / / / n u l v                                   ",
"                                w } x / / / / / / y }               } } / / / / / / / } z                                       ",
"                                w } x / / / / / / y }               } } / / / / / / / } z                                       ",
"                                A 2 B | / / / / / y }               } } / / / / / C | 2 D                                       ",
"                                    E } / / / / / y }               } } / / / / / F }                                           ",
"                                    E } / / / G H I }               } } H J / / / F }                                           ",
"                                    K L M M N O P Q } R R R R R R R } } P S N T M U L                                           ",
"                                    V W X X Y Z P Q } ` ` ` ` ` ` ` } } P  .Y ..X +.W                                           ",
"                                        } } @.#.P $.%.%.%.%.%.%.%.%.%.%.P &.@.*.} {                                             ",
"                                        } } =.-.P ;.>.>.>.>.>.>.>.>.>.>.P ,.=.'.} {                                             ",
"                                    ).2 | | !.~.H {./ / / / / / / / / / H ].!.^.| /.2                                           ",
"                                    E } / / / / / / / / / / / / / / / / / / / / / F }                                           ",
"                                A 2 B | / / / / / / / / / / / / / / / / / / / / / C | 2 D                                       ",
"                                w } x / / / / / / / / / / / / / / / / / / / / / / / / } z                                       ",
"                                w } x / / / / / / / / / / / / / / / / / / / / / / / / } z                                       ",
"                            (._.:.<.[./ / / / / / / / / / / / / / / / / / / / / / / / <.}._.|.                                  ",
"                            0 E 1.x 2./ / / / / / / / / / / / / / / / / / / / / / / / x 3.E 4.                                  ",
"                            { } ^ / / / / / / / / / / / / / / / / / / / / / / / / / / / < } 6                                   ",
"                            { } ^ / / / / / / / / / / / / / / / / / / / / / / / / / / / < } 6                                   ",
"                            { } ^ / 5.| / / / / / / / / / / / / / / | | / / / / / / / / < } 6                                   ",
"                            { } ^ / 9 } / / / / / 6.>./ / / / / / / } } / / / / / / / / < } 6                                   ",
"                            { } ^ / 9 } / / / / / 7.%./ / / / / / / } } / / / / / / / / < } 6                                   ",
"                            { } ^ / 8.X / / / / / y } / / / / / / / X X / / / / / / / / < } 6                                   ",
"                            { } ^ / 9.M / / / / / y } / / / / / / / M M / / / / / / / / < } 6                                   ",
"                            { } 0.H a./ / / / b.| | | | | / / / / / / / / / / / / / / H c.} 6                                   ",
"                            { } d.P e./ / / / 7 } c / } } / / / / / / / / / / / / / / P f.} 6                                   ",
"                            = 2 g.h.i.H / / / b.| j./ | | / / / / / / / / / / / / k.H h.l.2 m.                                  ",
"                                ).n.o.f.p.p.p.q./ / / / / / / / / / / / / / p.p.p.r.f.n.s.                                      ",
"                                R t.u.v.w.w.w.x./ / / / / / / / / / / / / y.w.w.w.l.v.t.z.                                      ",
"                                    A.s B.B.C.D.E.F.G.G.G.G.G.G.G.G.G.G.E.H.C.I.B.J.s                                           ",
"                                    K.8 L.L.M.N.O.P.Q.Q.Q.Q.Q.Q.Q.Q.Q.Q.O.R.M.S.L.T.8                                           ",
"                                        } } U.V.W.X.Y.Y.Y.Y.Y.Y.Y.Y.Y.Y.Z.`.U. +.+++w                                           ",
"                                        } } @+#+$+p.%+%+%+%+%+%+%+%+%+%+&+*+@+@+=+-+;+                                          ",
"                                    ).2 h.h.H >+/ / / / / / / / / / / / ,+'+P )+H !+| 2 D                                       ",
"                                  ~+{+]+P P / / / / / / / / / / / / / / ^+/+P (+/ / / _+:+~+                                    ",
"                                A <+[+}+P P / / / / / / / / / / / / / / |+,+1+2+/ / / 3+4+<+#                                   ",
"                                w } 5+P 6+6+/ / / / / / / / / / / / / / 7+8+9+0+/ / / / < } 6                                   ",
"                                w } 5+P a+a+/ / / / / / / / / / / / / / b+c+9+0+/ / / / < } 6                                   ",
"                                w } 5+P 9+9+/ / / / / / / / / / / / / / / d+e+f+g+2./ / < } 6                                   ",
"                                w } 5+P 9+9+/ / / / / / / / / / / / / / / h+i+j+k+d / / < } 6                                   ",
"                                A 2 l+h.m+m+/ / / / / / / / / / / / / / / a.H n+m+o+| | p+2 m.                                  ",
"                                    E } } } / / / / / / / / / / / / / / / / / ^ } } } } z                                       ",
"                                    ).2 } } H >+/ / / / / / / / / / / / / / / q+m+r+} 2 D                                       ",
"                                        s+s+t+u+e.e.e.v+v+w+x+e.p./ / / / 2.v+y+z+A+}                                           ",
"                                        B+B+C+D+E+E+E+F+F+G+H+E+I+/ / / / J+F+K+L+M+}                                           ",
"                                            A.N+O+P+P Q+Q+} R+S+T+/ / / U+V+W+X+Y+Z+A.                                          ",
"                                            v `+ @.@P +@+@} @@#@%+/ / / $@%@&@*@=@-@v                                           ",
"                                              B+} ;@h.h.h.} >@| | | | | 2 2 2 2 2 =                                             ",
"                                              B+} } } } } } } } } } } }                                                         ",
"                                              ,@2 2 2 2 2 2 2 2 2 2 2 2                                                         ",
"                                                                                                                                ",
"                                                                                                                                "};
