/* XPM */
static char * player4_xpm[] = {
"64 64 348 2",
"  	c #55A666",
". 	c #55A565",
"+ 	c #4F9C5F",
"@ 	c #53A263",
"# 	c #54A565",
"$ 	c #519F62",
"% 	c #54A465",
"& 	c #509C60",
"* 	c #40804D",
"= 	c #549260",
"- 	c #3B7647",
"; 	c #3D7A49",
"> 	c #4E995D",
", 	c #53A264",
"' 	c #488E57",
") 	c #4A9159",
"! 	c #529E62",
"~ 	c #4B945A",
"{ 	c #54A364",
"] 	c #52A062",
"^ 	c #295432",
"/ 	c #4F7455",
"( 	c #527F5A",
"_ 	c #5D5D5D",
": 	c #B6B9B6",
"< 	c #8D908D",
"[ 	c #1B3C22",
"} 	c #346A40",
"| 	c #52A163",
"1 	c #41814E",
"2 	c #2A5834",
"3 	c #607A65",
"4 	c #8A958C",
"5 	c #1D3F24",
"6 	c #588E63",
"7 	c #415D46",
"8 	c #30623A",
"9 	c #509D61",
"0 	c #509D60",
"a 	c #458953",
"b 	c #519E61",
"c 	c #387144",
"d 	c #393939",
"e 	c #9B9B9B",
"f 	c #E4E4E4",
"g 	c #CACACA",
"h 	c #EDEDED",
"i 	c #FAFAFA",
"j 	c #B9B9B9",
"k 	c #3E473F",
"l 	c #2C5B36",
"m 	c #41824F",
"n 	c #3F7E4C",
"o 	c #26502F",
"p 	c #737473",
"q 	c #E3E3E3",
"r 	c #D8D8D8",
"s 	c #B0B0B0",
"t 	c #D7D9D8",
"u 	c #8A8A8A",
"v 	c #343434",
"w 	c #3B6E45",
"x 	c #4C905A",
"y 	c #366D41",
"z 	c #438551",
"A 	c #2C5C36",
"B 	c #234B2B",
"C 	c #7D9480",
"D 	c #7F8180",
"E 	c #7C7C7C",
"F 	c #E7E7E7",
"G 	c #FFFFFF",
"H 	c #FDFDFD",
"I 	c #DADADA",
"J 	c #717271",
"K 	c #3D7B4A",
"L 	c #234C2C",
"M 	c #808080",
"N 	c #EBEBEB",
"O 	c #FBFBFB",
"P 	c #E5E5E5",
"Q 	c #878787",
"R 	c #999999",
"S 	c #A5AEA6",
"T 	c #253127",
"U 	c #0C2110",
"V 	c #458853",
"W 	c #3B7748",
"X 	c #000000",
"Y 	c #717171",
"Z 	c #D4D4D4",
"` 	c #DFDFDF",
" .	c #E1E1E1",
"..	c #5D8D66",
"+.	c #3A7546",
"@.	c #8C8C8C",
"#.	c #F0F0F0",
"$.	c #BBBBBB",
"%.	c #080808",
"&.	c #132E18",
"*.	c #478D56",
"=.	c #3B3B3B",
"-.	c #DCDCDC",
";.	c #FEFEFE",
">.	c #F9F9F9",
",.	c #A2A2A2",
"'.	c #25502E",
").	c #4B935A",
"!.	c #528E5E",
"~.	c #D0D1D0",
"{.	c #B1B1B1",
"].	c #18361E",
"^.	c #4A9259",
"/.	c #4F9B5F",
"(.	c #519F61",
"_.	c #204528",
":.	c #C6C6C6",
"<.	c #243D29",
"[.	c #509E61",
"}.	c #32663D",
"|.	c #5F615F",
"1.	c #A7A7A7",
"2.	c #1C3F23",
"3.	c #448652",
"4.	c #346B40",
"5.	c #4C955B",
"6.	c #366D42",
"7.	c #468B55",
"8.	c #2F623A",
"9.	c #8F8F91",
"0.	c #FBFAFA",
"a.	c #E8E8E8",
"b.	c #F6F6F6",
"c.	c #E2E2E2",
"d.	c #545955",
"e.	c #32673E",
"f.	c #2B5A35",
"g.	c #6C6D6C",
"h.	c #F8F8F8",
"i.	c #FCFCFC",
"j.	c #EEEFF7",
"k.	c #838699",
"l.	c #102916",
"m.	c #1B3D22",
"n.	c #428450",
"o.	c #448853",
"p.	c #244D2D",
"q.	c #9EB3BB",
"r.	c #2D4E36",
"s.	c #223E28",
"t.	c #4D4F5D",
"u.	c #CCD0E8",
"v.	c #F8F9FF",
"w.	c #D5D5D5",
"x.	c #898989",
"y.	c #BABCBA",
"z.	c #7D877F",
"A.	c #295733",
"B.	c #468A54",
"C.	c #55A566",
"D.	c #53A364",
"E.	c #295632",
"F.	c #787878",
"G.	c #DEDFDE",
"H.	c #C3C3C3",
"I.	c #BDBDBD",
"J.	c #F9FAFE",
"K.	c #DCE1FC",
"L.	c #CBD1F1",
"M.	c #76798D",
"N.	c #16331C",
"O.	c #83A29C",
"P.	c #99BDB6",
"Q.	c #BBCDDE",
"R.	c #6B8081",
"S.	c #D3D9FA",
"T.	c #CAD0EF",
"U.	c #8A8EA4",
"V.	c #212428",
"W.	c #ADB2CD",
"X.	c #D6DCFC",
"Y.	c #E6E9FC",
"Z.	c #D7D7D7",
"`.	c #EFEFEF",
" +	c #646464",
".+	c #0B1F0F",
"++	c #598762",
"@+	c #30633B",
"#+	c #6E8C73",
"$+	c #707A72",
"%+	c #010502",
"&+	c #D6D6D6",
"*+	c #FCFCFE",
"=+	c #E4E8FC",
"-+	c #BBC2DE",
";+	c #3A4946",
">+	c #B0A3D1",
",+	c #BDB8E1",
"'+	c #E2E3EC",
")+	c #CED2F4",
"!+	c #AFA2D0",
"~+	c #83809C",
"{+	c #D7DCFA",
"]+	c #EDEFFC",
"^+	c #F9F9FB",
"/+	c #DEDEDE",
"(+	c #4A4A4A",
"_+	c #686C69",
":+	c #829285",
"<+	c #4B945B",
"[+	c #498F57",
"}+	c #1A3B21",
"|+	c #060606",
"1+	c #97A499",
"2+	c #3E3F3E",
"3+	c #595959",
"4+	c #E7E8ED",
"5+	c #DCE0F6",
"6+	c #C4D2E9",
"7+	c #636677",
"8+	c #A591C5",
"9+	c #B7AFDA",
"0+	c #F5F6FE",
"a+	c #CDD0F3",
"b+	c #726489",
"c+	c #BDCDE1",
"d+	c #CCD0E6",
"e+	c #D3D4DA",
"f+	c #DFE0DF",
"g+	c #7E7F7E",
"h+	c #070707",
"i+	c #468B54",
"j+	c #397345",
"k+	c #656C66",
"l+	c #BCC0BD",
"m+	c #A3A4AC",
"n+	c #949AB0",
"o+	c #555866",
"p+	c #505157",
"q+	c #6B6F82",
"r+	c #6A7072",
"s+	c #7A947E",
"t+	c #305A38",
"u+	c #2F613A",
"v+	c #54A464",
"w+	c #34683F",
"x+	c #589062",
"y+	c #387044",
"z+	c #2F4A3A",
"A+	c #3F3F3F",
"B+	c #4D975C",
"C+	c #0F2614",
"D+	c #2E5F38",
"E+	c #9BA59D",
"F+	c #B3B3B3",
"G+	c #6C6C6C",
"H+	c #CCCCCC",
"I+	c #9398AF",
"J+	c #D3D3D3",
"K+	c #CED4F4",
"L+	c #C4CAE9",
"M+	c #D5DBFA",
"N+	c #428350",
"O+	c #193A20",
"P+	c #BBC1DE",
"Q+	c #C9CEEE",
"R+	c #FBFBFE",
"S+	c #FCFDFF",
"T+	c #FEFEFF",
"U+	c #CBD1EF",
"V+	c #1F4427",
"W+	c #1F4326",
"X+	c #E4E7FC",
"Y+	c #33343E",
"Z+	c #3D7A4A",
"`+	c #999EB6",
" @	c #A2A2C1",
".@	c #B7B4CE",
"+@	c #D7D1E4",
"@@	c #E5E6F7",
"#@	c #EAEDFC",
"$@	c #D0CADF",
"%@	c #9DA0BB",
"&@	c #457C53",
"*@	c #503B65",
"=@	c #776490",
"-@	c #C9CAEE",
";@	c #9C88BB",
">@	c #352644",
",@	c #DDDFF5",
"'@	c #F9F8FB",
")@	c #FBFCFF",
"!@	c #CFD4F6",
"~@	c #CFD3F5",
"{@	c #CBD0F1",
"]@	c #CAD0F0",
"^@	c #364843",
"/@	c #16341D",
"(@	c #71698A",
"_@	c #EDEFFD",
":@	c #274831",
"<@	c #17171D",
"[@	c #534069",
"}@	c #736B8C",
"|@	c #D2D8F9",
"1@	c #ECEEFC",
"2@	c #1E1E1E",
"3@	c #233226",
"4@	c #C6CBEB",
"5@	c #C9C7CD",
"6@	c #ACAECE",
"7@	c #E7EAFC",
"8@	c #D8DAED",
"9@	c #EFEEF0",
"0@	c #F7F8FC",
"a@	c #C3C7E8",
"b@	c #A6A6BF",
"c@	c #898193",
"d@	c #9D9DBC",
"e@	c #BBB7BF",
"f@	c #0D0713",
"g@	c #B2B7D3",
"h@	c #CBCFE3",
"i@	c #F2F4FD",
"j@	c #DBD9DD",
"k@	c #DEDFE2",
"l@	c #ACA6B7",
"m@	c #74618D",
"n@	c #17121E",
"o@	c #83879C",
"p@	c #707486",
"q@	c #F1F3FD",
"r@	c #8774A3",
"s@	c #25202F",
"t@	c #488F57",
"u@	c #5C886E",
"v@	c #767A8D",
"w@	c #C1C7E5",
"x@	c #BABDDD",
"y@	c #838388",
"z@	c #F4F5FE",
"A@	c #909090",
"B@	c #878687",
"C@	c #291D36",
"D@	c #4A3F5A",
"E@	c #5B506E",
"F@	c #498C58",
"G@	c #BABFDC",
"                                                                                                                                ",
"                                                                                                                                ",
"                                                                                                                                ",
"                                                                                                                                ",
"                                                                                                                                ",
"                                                                                                                                ",
"                                                                                                  .     + @                     ",
"                . #                                                                           $ % & * = - ; >                   ",
"              , ' ) ! ~ { ] @                                                           .   ] ^ / ( _ : < [ } ' %               ",
"            | 1 2 3 4 5 6 7 8 @   9                                                   0 a b c d e f g h i j k l m @             ",
"          $ n o p q r s t u v w x y z                                               @ A B C D E F G H G G G I J c %             ",
"        | K L M N G O i G P Q R S T U V                                             W X Y F Z ` G G G G G G G  ...              ",
"        % +.@.#.G G G G G G N ` O $.%.&.*.                                        *.U =.-.G H ;.G G G G G G >.,.'.).            ",
"          !.~.G G G G G G G G ;.G H {.X ].^.  /.@                           (.# 0 _.X $.G G G G G G G G G ;.:.<.+.[.            ",
"        0 }.|.` ;.G G G G G G G G G O 1.X 2.3.c 4.%                       5.6.7.8.X 9.0.G G G G G G G a.b.c.d.e.5.              ",
"        % a f.g.P G h.i.G G G G G G G j.k.X l.m.V       n.n.n.n.n.n.o.p.p.q.r.s.X t.u.v.G G G G G G w.x.y.z.A.B.C.              ",
"          D.z E.F.G.H.I.O G G G G G J.K.L.M.N.O.P.Q.R.p.X X X X X X X X X S.T.U.V.W.X.Y.G G G Z.#.`. +.+++V B.@                 ",
"            @ m @+#+$+%+{.;.&+Z.G G *+=+X.-+;+>+,+S.'+F F F F F F F F F F S.)+!+~+T.{+]+^+G /+(+_+:+%+e.# % D.                  ",
"              @ <+[.[+}+|+1+2+3+-.O 4+5+6+7+X 8+9+S.0+G G G G G G G G G G S.a+8+b+7+c+d+e+f+g+h+W % 3.0                         ",
"                .     i+K { j+%.k+l+m+n+o+G G G G G G G G G G G G G G G G G G G G G p+q+r+s+t+u+@                               ",
"                            v+j+w+x+y+z+X G G G G G G G G G G G G G G G G G G G G G A+X B+@ ) 0                                 ",
"                              v+/.n X h G G G G G G G G G G G G G G G G G G G G G G G G X C+                                    ",
"                                  n X h G G G G G G G G G G G G G G G G G G G G G G G G X C+                                    ",
"                                  n X h G G G G G G G G G G G G G G G G G G G G G G G G X C+                                    ",
"                              { D+E+I i G G G G G G G G G G G G G G G G G G G G G G G G I w.D+z                                 ",
"                              @ X F+G G G G G G G G G G G G G G G G G G G G G G G G G G G >.X j+                                ",
"                              @ X F+G G G G G G G G G G G G G G G G G G G G G G G G G G G >.X j+                                ",
"                              @ X F+G G G G G G G G G G G G G G G G G G G G G G G G G G G >.X j+                                ",
"                              @ X F+G G+X G G G G G G G G G G G G G G X X G G G G G G G G >.X j+                                ",
"                              @ X F+G G+X G G G G G h F G G G G G G G X X G G G G G G G G >.X j+                                ",
"                              @ X F+G G+X G G G G G x.X G G G G G G G X X G G G G G G G G >.X j+                                ",
"                              @ X F+G w.H+G G G G G x.X G G G G G G G H+H+G G G G G G G G >.X j+                                ",
"                              @ X F+G G G G G G G G x.X G G G G G G G G G G G G G G G G G >.X j+                                ",
"                              @ X I+S.J.G G G G J+X  .G X X G G G G G G G G G G G G G G S.K+X j+                                ",
"                              @ X I+S.J.G G G G J+X  .G X X G G G G G G G G G G G G G G S.K+X j+                                ",
"                                  n X L+S.G G G G G G G G G G G G G G G G G G G G G M+S.X C+                                    ",
"                                  N+O+P+Q+R+R+R+S+G G G G G G G G G G G G G T+R+R+R+U+Q+O+V+                                    ",
"                                      W+X S.S.S.X+G G G G G G G G G G G G G J.S.S.S.Y+X                                         ",
"                                      m Z+`+`+ @.@+@@@#@#@#@#@#@#@#@#@#@#@+@$@ @%@`+&@Z+                                        ",
"                                          X X *@=@8+-@S.S.S.S.S.S.S.S.S.S.8+;@*@>@X @                                           ",
"                                          X X L.,@'@R+)@)@)@)@)@)@)@)@)@)@!@~@L.{@]@^@/@                                        ",
"                                          X X S.X+G G G G G G G G G G G G S.S.S.S.S.Y+X                                         ",
"                                      W+X S.S.G G G G G G G G G G G G G G *@(@S._@G G G X C+                                    ",
"                                    . :@<@S.S.G G G G G G G G G G G G G G [@}@|@1@G G G 2@3@. C.                                ",
"                                  n X L+S.S.S.G G G G G G G G G G G G G G S.4@*@5@G G G G >.X j+                                ",
"                                  n X L+S.6@6@G G G G G G G G G G G G G G 7@8@*@5@G G G G >.X j+                                ",
"                                  n X L+S.*@*@G G G G G G G G G G G G G G G 9@*@5@G G G G >.X j+                                ",
"                                  n X L+S.*@*@G G G G G G G G G G G G G G G 0@a@b@c@O G G >.X j+                                ",
"                                  n X L+S.*@*@G G G G G G G G G G G G G G G J.S.d@*@i G G >.X j+                                ",
"                                      W+X X X G G G G G G G G G G G G G G G G G F+X X X X C+                                    ",
"                                      W+X X X G G G G G G G G G G G G G G G G G F+X X X X C+                                    ",
"                                          X X S.X+G G G G G G G G G G G G G G G e@*@f@X                                         ",
"                                          8.8.g@h@i@i@i@j@j@Z.k@i@R+G G G G i j@l@m@n@X                                         ",
"                                              X o@S.S.S.*@*@X p@S.q@G G G G 9@*@r@8+s@X                                         ",
"                                              t@u@v@w@S.x@x@X y@z@)@G G G A@B@C@D@E@F@t@                                        ",
"                                                a X G@S.S.S.X x.G G G G G X X X X X @                                           ",
"                                                a X X X X X X X X X X X X                                                       ",
"                                                a X X X X X X X X X X X X                                                       ",
"                                                                                                                                ",
"                                                                                                                                ",
"                                                                                                                                ",
"                                                                                                                                ",
"                                                                                                                                ",
"                                                                                                                                "};
