/* XPM */
static char * player4_xpm[] = {
"64 64 169 2",
"  	c #55A666",
". 	c #4C965B",
"+ 	c #376F42",
"@ 	c #3C7949",
"# 	c #438551",
"$ 	c #458953",
"% 	c #000000",
"& 	c #1F4326",
"* 	c #32663D",
"= 	c #040E05",
"- 	c #9F9F9F",
"; 	c #FEFEFE",
"> 	c #2A5834",
", 	c #407F4D",
"' 	c #ECECEC",
") 	c #D2D2D2",
"! 	c #4A9259",
"~ 	c #A0A0A0",
"{ 	c #FFFFFF",
"] 	c #2A5733",
"^ 	c #3F7E4C",
"/ 	c #EDEDED",
"( 	c #D3D3D3",
"_ 	c #E1E1E1",
": 	c #53A263",
"< 	c #B3B3B3",
"[ 	c #3C7848",
"} 	c #7E9581",
"| 	c #BDBDBD",
"1 	c #F1F1F1",
"2 	c #F0F0F0",
"3 	c #BABABA",
"4 	c #7C9580",
"5 	c #3D7A4A",
"6 	c #4A7E54",
"7 	c #DDDDDD",
"8 	c #9FA9A1",
"9 	c #509C60",
"0 	c #3F3F3F",
"a 	c #F5F6FE",
"b 	c #D3D9FA",
"c 	c #83879C",
"d 	c #33343E",
"e 	c #E8EBFC",
"f 	c #356C41",
"g 	c #CCCCCC",
"h 	c #EFF1FD",
"i 	c #428450",
"j 	c #E0E4FB",
"k 	c #D2D2D4",
"l 	c #585B6A",
"m 	c #B0A3D1",
"n 	c #B9B3DC",
"o 	c #E0E2EE",
"p 	c #E7E7E7",
"q 	c #E6E6E8",
"r 	c #C4C3E9",
"s 	c #484257",
"t 	c #A591C5",
"u 	c #B2A7D4",
"v 	c #F1F3FD",
"w 	c #FDFDFF",
"x 	c #C0BDE4",
"y 	c #433A52",
"z 	c #2E5F38",
"A 	c #8C998E",
"B 	c #DADADA",
"C 	c #F6F6F6",
"D 	c #B5BBB6",
"E 	c #4D985D",
"F 	c #898989",
"G 	c #C4C4C4",
"H 	c #FCFCFC",
"I 	c #F4F4F4",
"J 	c #EAEAEA",
"K 	c #F8F8F8",
"L 	c #6C6C6C",
"M 	c #F9F9F9",
"N 	c #AEB3CF",
"O 	c #BABFDC",
"P 	c #478C55",
"Q 	c #193A20",
"R 	c #B0B8D2",
"S 	c #C9CEEE",
"T 	c #FBFBFE",
"U 	c #FCFCFF",
"V 	c #376F43",
"W 	c #DFE3FB",
"X 	c #EDEFFD",
"Y 	c #448752",
"Z 	c #999EB6",
"` 	c #A2A2C1",
" .	c #B1AFCB",
"..	c #D7D1E4",
"+.	c #E4E3F4",
"@.	c #EAEDFC",
"#.	c #E9EBFB",
"$.	c #C2BED5",
"%.	c #9B9EB8",
"&.	c #503B65",
"*.	c #6D5B86",
"=.	c #C4C4E9",
"-.	c #D1D6F8",
";.	c #8774A3",
">.	c #1D1326",
",.	c #2F623A",
"'.	c #16341D",
").	c #CAD0F0",
"!.	c #CBD1F1",
"~.	c #CCD2F2",
"{.	c #CFD4F6",
"].	c #EDEFFC",
"^.	c #FBFCFF",
"/.	c #FAFAFE",
"(.	c #CED2F4",
"_.	c #CBD0F0",
":.	c #BDC1E1",
"<.	c #D7D5D9",
"[.	c #FAFAFA",
"}.	c #9D9DBC",
"|.	c #F9FAFE",
"1.	c #55A565",
"2.	c #478955",
"3.	c #1E1E1E",
"4.	c #D2D8F9",
"5.	c #BCC0E0",
"6.	c #534069",
"7.	c #D7D5DA",
"8.	c #386942",
"9.	c #827D9D",
"0.	c #A9AAC9",
"a.	c #EFEEF0",
"b.	c #8B869E",
"c.	c #E7EAFC",
"d.	c #F7F8FE",
"e.	c #FEFEFF",
"f.	c #B7B7CB",
"g.	c #97919F",
"h.	c #C9C7CD",
"i.	c #898193",
"j.	c #C3C7E8",
"k.	c #D4D7EE",
"l.	c #E7E8F5",
"m.	c #948FA3",
"n.	c #71698A",
"o.	c #DBD9DD",
"p.	c #E5E3E6",
"q.	c #F2F4FD",
"r.	c #EEF0F8",
"s.	c #D7D7D7",
"t.	c #E7E8ED",
"u.	c #F0EFF0",
"v.	c #5C5B5D",
"w.	c #C4CAE9",
"x.	c #A1A6C0",
"y.	c #488F57",
"z.	c #291D36",
"A.	c #535058",
"B.	c #909090",
"C.	c #E0E0E0",
"D.	c #F4F5FE",
"E.	c #E3E4EC",
"F.	c #BBBCC3",
"G.	c #FEFFFF",
"H.	c #FBFBFB",
"I.	c #716F73",
"J.	c #458553",
"K.	c #4F9A5E",
"L.	c #0F2614",
"                                                                                                                                ",
"                                                                                                                                ",
"                                                                                                                                ",
"                                                                                                                                ",
"                                . + + + + +                                       @ + + + + #                                   ",
"                                $ % % % % %                                       & % % % % *                                   ",
"                              = - ; ; ; ; ; = >                               , = ' ; ; ; ; ) = !                               ",
"                              % ~ { { { { { % ]                               ^ % / { { { { ( % !                               ",
"                              % ~ { { { { { { _ % $                       : % < { { { { { { ( % !                               ",
"                              % ~ { { { { { { _ % $                       : % < { { { { { { ( % !                               ",
"                              % ~ { { { { { { _ % $                       : % < { { { { { { ( % !                               ",
"                              [ } | 1 { { { { 2 3 4 5                   5 6 3 7 { { { { { | 8 [ 9                               ",
"                                $ % _ { { { { { { ~ %                   % 0 { { { { { { { % *                                   ",
"                                $ % _ { { { { { { ~ %                   % 0 { { { { { { { % *                                   ",
"                                $ % _ { { { { { { ~ %                   % 0 { { { { { { { % *                                   ",
"                                    ] % { { { { { ~ %                   % 0 { { { { { % %                                       ",
"                                    ] % { { { { { ~ %                   % 0 { { { { { % %                                       ",
"                                    ] % { { { a b c %                   % d b e { { { % %                                       ",
"                                    ^ f g g h e b c % i i i i i i i i i % d b j h k g f f                                       ",
"                                        % % b b b c % % % % % % % % % % % d b b b l %                                           ",
"                                        % % m n b o p p p p p p p p p p p q b r m s %                                           ",
"                                        % % t u b v { { { { { { { { { { { w b x t y %                                           ",
"                                    ] % { { { { { { { { { { { { { { { { { { { { { { { % %                                       ",
"                                    ] % { { { { { { { { { { { { { { { { { { { { { { { % %                                       ",
"                                $ % _ { { { { { { { { { { { { { { { { { { { { { { { { { { % *                                   ",
"                                $ % _ { { { { { { { { { { { { { { { { { { { { { { { { { { % *                                   ",
"                                $ % _ { { { { { { { { { { { { { { { { { { { { { { { { { { % *                                   ",
"                              z A B C { { { { { { { { { { { { { { { { { { { { { { { { { { B D z E                               ",
"                              % ~ { { { { { { { { { { { { { { { { { { { { { { { { { { { { { ( % !                               ",
"                              % ~ { { { { { { { { { { { { { { { { { { { { { { { { { { { { { ( % !                               ",
"                              % ~ { { { { { { { { { { { { { { { { { { { { { { { { { { { { { ( % !                               ",
"                              % ~ { { { { { % F { { { { { { { { { { { { { { { G % / { { { { ( % !                               ",
"                              % ~ { { { { { % F { { { { { { H p I { { { { { { G % / { { { { ( % !                               ",
"                              % ~ { { { { { % F { { { { { { / % G { { { { { { G % / { { { { ( % !                               ",
"                              % ~ { { { { { g B { { { { { { / % G { { { { { { J g K { { { { ( % !                               ",
"                              % ~ { { { { { { { { { { { { { / % G { { { { { { { { { { { { { ( % !                               ",
"                              % c b a { { { { { { { { { { % L { < % M { { { { { { { { { { b N % !                               ",
"                              % c b a { { { { { { { { { { % L { < % M { { { { { { { { { { b N % !                               ",
"                                $ % O b { { { { { { { { { { { { { { { { { { { { { { { b b % *                                   ",
"                                P Q R S T T T U { { { { { { { { { { { { { { { w T T T S S Q V                                   ",
"                                    ] % b b b W { { { { { { { { { { { { { { { X b b b % %                                       ",
"                                    Y 5 Z Z `  ...+.@.@.@.@.@.@.@.@.@.@.@.#...$.` %.Z 5 5                                       ",
"                                        % % &.*.t =.b b b b b b b b b b b -.t ;.&.>.%                                           ",
"                                    ,.'.).).!.~.{.].^.^.^.^.^.^.^.^.^.^.^./.{.(.!._.).'.'.                                      ",
"                                    ] % b b b b b v { { { { { { { { { { { w b b b b b % %                                       ",
"                                $ % _ { { { b :.&.<.{ { { { { { { { { { { [.&.}.b |.{ { { % *                                   ",
"                              1.2.3._ { { { 4.5.6.7.{ { { { { { { { { { { [.6.}.4.|.{ { { 3.8.1.                                ",
"                              % ~ { { { { { &.9.b v { { { { { { { { { { { w b 0.&.a.{ { { { ( % !                               ",
"                              % ~ { { { { { &.b.c.d.{ { { { { { { { { { { e.c.f.&.a.{ { { { ( % !                               ",
"                              % ~ { { { { { &.g.{ { { { { { { { { { { { { { { h.&.a.{ { { { ( % !                               ",
"                              % ~ { { { i.i.j.k.{ { { { { { { { { { { { { { { l.j.m.i.{ { { ( % !                               ",
"                              % ~ { { { &.&.b W { { { { { { { { { { { { { { { X b n.&.{ { { ( % !                               ",
"                                $ % % % % % { { { { { { { { { { { { { { { { { { { L % % % % *                                   ",
"                                $ % % % % % { { { { { { { { { { { { { { { { { { { L % % % % *                                   ",
"                                        % % { { { { { { { { { { { { { { { { { { { L %                                           ",
"                                        % % o.p.{ { { { { q.r.s.t.q.e.{ { { { u.o.v.%                                           ",
"                                        % % &.g.{ { { { { b w.% x.b w { { { { h.&.>.%                                           ",
"                                        y.y.z.A.B.C.{ { { D.E.% F.D.G.{ { H.B.I.z.J.y.                                          ",
"                                            % % % ( { { { { / % G { { { { M % % % K.                                            ",
"                                                  * % % % % % % % % % % % L.                                                    ",
"                                                  * % % % % % % % % % % % L.                                                    ",
"                                                                                                                                ",
"                                                                                                                                ",
"                                                                                                                                "};
