/* XPM */
static char * player1_xpm[] = {
"64 64 118 2",
"  	c #55A666",
". 	c #EFEFEF",
"+ 	c #FFFFFF",
"@ 	c #D5D5D5",
"# 	c #444444",
"$ 	c #DFDFDF",
"% 	c #838383",
"& 	c #474747",
"* 	c #8E8E8E",
"= 	c #8F8F8F",
"- 	c #AEAEAE",
"; 	c #B9B9B9",
"> 	c #C7C7C7",
", 	c #717171",
"' 	c #F3F4FD",
") 	c #D7DDFA",
"! 	c #787B8C",
"~ 	c #DADFFB",
"{ 	c #F1F3FD",
"] 	c #D3D9FA",
"^ 	c #75798C",
"/ 	c #D6DBFA",
"( 	c #A2A6C0",
"_ 	c #777A8D",
": 	c #438451",
"< 	c #A591C5",
"[ 	c #B6AED9",
"} 	c #F4F5FE",
"| 	c #D1D6F7",
"1 	c #7E6E97",
"2 	c #AAAAAA",
"3 	c #D0C7DF",
"4 	c #D8D3E9",
"5 	c #E6E9FC",
"6 	c #F8F9FE",
"7 	c #E5E8FA",
"8 	c #C0BBCA",
"9 	c #494949",
"0 	c #D9D9D9",
"a 	c #E7E7E7",
"b 	c #EBEBEB",
"c 	c #B8B8B8",
"d 	c #BBBBBB",
"e 	c #979797",
"f 	c #000000",
"g 	c #2C2C2C",
"h 	c #B2B3B7",
"i 	c #FEFEFF",
"j 	c #F3F3F3",
"k 	c #E9E9E9",
"l 	c #7B7B7B",
"m 	c #767676",
"n 	c #979CB4",
"o 	c #FAFAFE",
"p 	c #ACACAC",
"q 	c #FCFCFC",
"r 	c #656879",
"s 	c #8F93AA",
"t 	c #DEE1F3",
"u 	c #E7EAFC",
"v 	c #E1E1E1",
"w 	c #C8C8C8",
"x 	c #FEFEFE",
"y 	c #CCCCCC",
"z 	c #EBEEFD",
"A 	c #C6CCEB",
"B 	c #DBE0FB",
"C 	c #D4DAFA",
"D 	c #E4E7FC",
"E 	c #FDFDFF",
"F 	c #E3E7FC",
"G 	c #C8C9ED",
"H 	c #A28EC1",
"I 	c #C3C8E7",
"J 	c #A998C9",
"K 	c #C9CAEE",
"L 	c #D7DCFA",
"M 	c #AE9CCA",
"N 	c #AB9AC6",
"O 	c #5F8F6E",
"P 	c #C4CAE8",
"Q 	c #81859A",
"R 	c #EDEFFD",
"S 	c #B6B6B6",
"T 	c #C9CAD1",
"U 	c #E9ECFC",
"V 	c #DBD5E6",
"W 	c #E3DEEB",
"X 	c #BBAED2",
"Y 	c #F5F4F8",
"Z 	c #E4E2E8",
"` 	c #7D7388",
" .	c #D6D4D8",
"..	c #CFCDD4",
"+.	c #6E6587",
"@.	c #C7CCEC",
"#.	c #E9E9EB",
"$.	c #503B65",
"%.	c #CECCD1",
"&.	c #CAC7CD",
"*.	c #C5C9EA",
"=.	c #A8A3AE",
"-.	c #C4C4C4",
";.	c #D8D7DB",
">.	c #8C8595",
",.	c #FBFAFC",
"'.	c #E7E6E9",
").	c #ABA7B1",
"!.	c #918FAE",
"~.	c #C0BDC4",
"{.	c #F0F2FD",
"].	c #EFF0FB",
"^.	c #CBC2DC",
"/.	c #BAB4C5",
"(.	c #A1A1A1",
"_.	c #BABFDD",
":.	c #6F7385",
"<.	c #B0B5D0",
"                                                                                                                                ",
"                                                                                                                                ",
"                                                                                                                                ",
"                                                                                                                                ",
"                                                                                                                                ",
"                                    . + + + + @                           # + + + + +                                           ",
"                                    . + + + + $ % &                     % * + + + + +                                           ",
"                                    . + + + + + + =                     + + + + + + +                                           ",
"                                    . + + + + + + =                     + + + + + + +                                           ",
"                                    . + + + + + + =                     + + + + + + +                                           ",
"                                    . + + + + + + =                     + + + + + + +                                           ",
"                                    . + + + + + + =                     + + + + + + +                                           ",
"                                    . + + + + + + =                     + + + + + + +                                           ",
"                                    . + + + + + + =                     + + + + + + +                                           ",
"                                    . + + + + + + =                     + + + + + + +                                           ",
"                                    - ; + + + + + =                     + + + + + > ;                                           ",
"                                        + + + + + =                     + + + + + ,                                             ",
"                                        + + + ' ) !                     ) ~ + + + ,                                             ",
"                                        + + + { ] ^                     ] / + + + ,                                             ",
"                                            ] ] ] ^                     ] ] ] (                                                 ",
"                                            ] ] ] _ : : : : : : : : : : ] ] ] (                                                 ",
"                                            < [ ] } + + + + + + + + + + ] | < 1                                                 ",
"                                        2 2 3 4 5 6 + + + + + + + + + + 5 7 3 8 2 9                                             ",
"                                        + + + + + + + + + + + + + + + + + + + + + ,                                             ",
"                                    0 a + + + + + + + + + + + + + + + + + + + + + b a                                           ",
"                                    . + + + + + + + + + + + + + + + + + + + + + + + +                                           ",
"                                    . + + + + + + + + + + + + + + + + + + + + + + + +                                           ",
"                                    . + + + + + + + + + + + + + + + + + + + + + + + +                                           ",
"                                c + + + + + + + + + + + + + + + + + + + + + + + + + + + +                                       ",
"                                c + + + + + + + + + + + + + + + + + + + + + + + + + + + +                                       ",
"                                c + + + + + + + + + + + + + + + + + + + + + + + + + + + +                                       ",
"                                c + + + + + + + + d e + + + + + + + + + + + + + + - e + +                                       ",
"                                c + + + + + + + + = f + + + + + + + + + + + + + + , f + +                                       ",
"                                c + + + + + + + + = f + + + + + + + g f + + + + + , f + +                                       ",
"                                c + + + + + + + + = f + + + + + + + g f + + + + + , f + +                                       ",
"                                c + + + + + + + + + + + + + + + + + g f + + + + + + + + +                                       ",
"                                h 6 i + + + + + + + + + + + + + j k l m k b + + + + + 6 6                                       ",
"                                n ] o + + + + + + + + + + + + + p f q + f # + + + + + ] ]                                       ",
"                                r s t u + + + + + + + + + + + + v w x + w y + + + z u s s                                       ",
"                                    A ] + + + + + + + + + + + + + + + + + + + + + B ]                                           ",
"                                        C C C D + + + + + + + + + + + + + E C C C                                               ",
"                                        ] ] ] F + + + + + + + + + + + + + E ] ] ]                                               ",
"                                                < G ] ] ] ] ] ] ] ] ] ] < H       I ]                                           ",
"                                                J K ] ] ] L L L L L L L M N O     P ]                                           ",
"                                              Q ] ] ] ] ] + + + + + + + + + + R ] ] ] ] ]                                       ",
"                                            S T U U U U U V W + + + + + + + + R ] ] ] ] ]                                       ",
"                                            + + + + + + + < X + + + + + + + + R ] ] ] ] ]                                       ",
"                                            + + + + + + + Y Z `  .+ + + + + + ..+.@.] ] ]                                       ",
"                                            + + + + + + + + #.$.%.+ + + + + + &.$.*.] ] ]                                       ",
"                                            $.=.+ + + + + + #.$.%.+ + + + + + -.                                                ",
"                                            $.=.+ + + + + + #.$.%.+ + + + + + -.                                                ",
"                                            + ;.$.$.$.$.$.$.>.+ + + + + + ,.< 1                                                 ",
"                                            + '.).).).!.!.).~.+ + + + + {.].^./.(.                                              ",
"                                            + + + + + ] ] + + + + + + + ] / + + +                                               ",
"                                        _._.+ + + + + :.:.                  + + +                                               ",
"                                        ] ] + + + + +                       + + +                                               ",
"                                        ] ] ] <.                                                                                ",
"                                        ] ] ] <.                                                                                ",
"                                                                                                                                ",
"                                                                                                                                ",
"                                                                                                                                ",
"                                                                                                                                ",
"                                                                                                                                ",
"                                                                                                                                "};
