/* XPM */
static char * player6_xpm[] = {
"64 64 348 2",
"  	c #55A666",
". 	c #53A263",
"+ 	c #4F9C5F",
"@ 	c #55A565",
"# 	c #4E995D",
"$ 	c #3D7A49",
"% 	c #3B7647",
"& 	c #549260",
"* 	c #40804D",
"= 	c #509C60",
"- 	c #54A465",
"; 	c #519F62",
"> 	c #54A565",
", 	c #488E57",
"' 	c #346A40",
") 	c #1B3C22",
"! 	c #8D908D",
"~ 	c #B6B9B6",
"{ 	c #5D5D5D",
"] 	c #527F5A",
"^ 	c #4F7455",
"/ 	c #295432",
"( 	c #52A062",
"_ 	c #54A364",
": 	c #4B945A",
"< 	c #529E62",
"[ 	c #4A9159",
"} 	c #53A264",
"| 	c #41824F",
"1 	c #2C5B36",
"2 	c #3E473F",
"3 	c #B9B9B9",
"4 	c #FAFAFA",
"5 	c #EDEDED",
"6 	c #CACACA",
"7 	c #E4E4E4",
"8 	c #9B9B9B",
"9 	c #393939",
"0 	c #387144",
"a 	c #519E61",
"b 	c #458953",
"c 	c #509D60",
"d 	c #509D61",
"e 	c #30623A",
"f 	c #415D46",
"g 	c #588E63",
"h 	c #1D3F24",
"i 	c #8A958C",
"j 	c #607A65",
"k 	c #2A5834",
"l 	c #41814E",
"m 	c #52A163",
"n 	c #717271",
"o 	c #DADADA",
"p 	c #FFFFFF",
"q 	c #FDFDFD",
"r 	c #E7E7E7",
"s 	c #7C7C7C",
"t 	c #7F8180",
"u 	c #7D9480",
"v 	c #234B2B",
"w 	c #2C5C36",
"x 	c #438551",
"y 	c #366D41",
"z 	c #4C905A",
"A 	c #3B6E45",
"B 	c #343434",
"C 	c #8A8A8A",
"D 	c #D7D9D8",
"E 	c #B0B0B0",
"F 	c #D8D8D8",
"G 	c #E3E3E3",
"H 	c #737473",
"I 	c #26502F",
"J 	c #3F7E4C",
"K 	c #5D8D66",
"L 	c #E1E1E1",
"M 	c #DFDFDF",
"N 	c #D4D4D4",
"O 	c #717171",
"P 	c #000000",
"Q 	c #3B7748",
"R 	c #458853",
"S 	c #0C2110",
"T 	c #253127",
"U 	c #A5AEA6",
"V 	c #999999",
"W 	c #878787",
"X 	c #E5E5E5",
"Y 	c #FBFBFB",
"Z 	c #EBEBEB",
"` 	c #808080",
" .	c #234C2C",
"..	c #3D7B4A",
"+.	c #4B935A",
"@.	c #25502E",
"#.	c #A2A2A2",
"$.	c #F9F9F9",
"%.	c #FEFEFE",
"&.	c #DCDCDC",
"*.	c #3B3B3B",
"=.	c #478D56",
"-.	c #132E18",
";.	c #080808",
">.	c #BBBBBB",
",.	c #F0F0F0",
"'.	c #8C8C8C",
").	c #3A7546",
"!.	c #509E61",
"~.	c #243D29",
"{.	c #C6C6C6",
"].	c #204528",
"^.	c #519F61",
"/.	c #4F9B5F",
"(.	c #4A9259",
"_.	c #18361E",
":.	c #B1B1B1",
"<.	c #D0D1D0",
"[.	c #528E5E",
"}.	c #4C955B",
"|.	c #32673E",
"1.	c #545955",
"2.	c #E2E2E2",
"3.	c #F6F6F6",
"4.	c #E8E8E8",
"5.	c #FBFAFA",
"6.	c #8F8F91",
"7.	c #2F623A",
"8.	c #468B55",
"9.	c #366D42",
"0.	c #346B40",
"a.	c #448652",
"b.	c #1C3F23",
"c.	c #A7A7A7",
"d.	c #5F615F",
"e.	c #32663D",
"f.	c #55A566",
"g.	c #468A54",
"h.	c #295733",
"i.	c #7D877F",
"j.	c #BABCBA",
"k.	c #898989",
"l.	c #D5D5D5",
"m.	c #F8F9FF",
"n.	c #CCD0E8",
"o.	c #4D4F5D",
"p.	c #223E28",
"q.	c #2D4E36",
"r.	c #9EB3BB",
"s.	c #244D2D",
"t.	c #448853",
"u.	c #428450",
"v.	c #1B3D22",
"w.	c #102916",
"x.	c #838699",
"y.	c #EEEFF7",
"z.	c #FCFCFC",
"A.	c #F8F8F8",
"B.	c #6C6D6C",
"C.	c #2B5A35",
"D.	c #598762",
"E.	c #0B1F0F",
"F.	c #646464",
"G.	c #EFEFEF",
"H.	c #D7D7D7",
"I.	c #E6E9FC",
"J.	c #D6DCFC",
"K.	c #ADB2CD",
"L.	c #212429",
"M.	c #8A8EA4",
"N.	c #CAD0EF",
"O.	c #D3D9FA",
"P.	c #6B8081",
"Q.	c #BBCDDE",
"R.	c #99BDB6",
"S.	c #83A29C",
"T.	c #15321B",
"U.	c #76798D",
"V.	c #CBD1F1",
"W.	c #DCE1FC",
"X.	c #F9FAFE",
"Y.	c #BDBDBD",
"Z.	c #C3C3C3",
"`.	c #DEDFDE",
" +	c #787878",
".+	c #295632",
"++	c #53A364",
"@+	c #010502",
"#+	c #829285",
"$+	c #686C69",
"%+	c #4A4A4A",
"&+	c #DEDEDE",
"*+	c #F9F9FB",
"=+	c #EDEFFC",
"-+	c #D7DCFA",
";+	c #83809C",
">+	c #AFA2D0",
",+	c #CED2F4",
"'+	c #E2E3EC",
")+	c #BDB8E1",
"!+	c #B0A3D1",
"~+	c #3A4946",
"{+	c #BBC2DE",
"]+	c #E4E8FC",
"^+	c #FCFCFE",
"/+	c #D6D6D6",
"(+	c #707A72",
"_+	c #6E8C73",
":+	c #30633B",
"<+	c #070707",
"[+	c #7E7F7E",
"}+	c #DFE0DF",
"|+	c #D3D4DA",
"1+	c #CCD0E6",
"2+	c #BECEE1",
"3+	c #636677",
"4+	c #726489",
"5+	c #A591C5",
"6+	c #CDD0F3",
"7+	c #F5F6FE",
"8+	c #B7AFDA",
"9+	c #C4D2E9",
"0+	c #DCE0F6",
"a+	c #E7E8ED",
"b+	c #595959",
"c+	c #3E3F3E",
"d+	c #97A499",
"e+	c #060606",
"f+	c #1A3B21",
"g+	c #498F57",
"h+	c #4B945B",
"i+	c #2F613A",
"j+	c #305A38",
"k+	c #7A947E",
"l+	c #6A7072",
"m+	c #6B6F82",
"n+	c #505157",
"o+	c #555866",
"p+	c #949BB0",
"q+	c #A3A4AC",
"r+	c #BCC0BD",
"s+	c #656C66",
"t+	c #397345",
"u+	c #468B54",
"v+	c #4D975C",
"w+	c #3F3F3F",
"x+	c #2F4A3A",
"y+	c #387044",
"z+	c #589062",
"A+	c #34683F",
"B+	c #54A464",
"C+	c #0F2614",
"D+	c #2E5F38",
"E+	c #9BA59D",
"F+	c #B3B3B3",
"G+	c #6C6C6C",
"H+	c #CCCCCC",
"I+	c #CED4F4",
"J+	c #D3D3D3",
"K+	c #9398AF",
"L+	c #D5DBFA",
"M+	c #C4CAE9",
"N+	c #1F4427",
"O+	c #193A20",
"P+	c #C9CEEE",
"Q+	c #CBD1EF",
"R+	c #FBFBFE",
"S+	c #FEFEFF",
"T+	c #FCFDFF",
"U+	c #BBC1DE",
"V+	c #428350",
"W+	c #33343E",
"X+	c #E4E7FC",
"Y+	c #1F4326",
"Z+	c #3D7A4A",
"`+	c #457C53",
" @	c #999EB6",
".@	c #9DA0BB",
"+@	c #A2A2C1",
"@@	c #D0CADF",
"#@	c #D7D1E4",
"$@	c #EAEDFC",
"%@	c #E5E6F7",
"&@	c #B7B4CE",
"*@	c #352644",
"=@	c #503B65",
"-@	c #9C88BB",
";@	c #C9CAEE",
">@	c #776490",
",@	c #16341D",
"'@	c #364843",
")@	c #CAD0F0",
"!@	c #CBD0F1",
"~@	c #CFD3F5",
"{@	c #CFD4F6",
"]@	c #FBFCFF",
"^@	c #F9F8FB",
"/@	c #DDDFF5",
"(@	c #EDEFFD",
"_@	c #71698A",
":@	c #233226",
"<@	c #1E1E1E",
"[@	c #ECEEFC",
"}@	c #D2D8F9",
"|@	c #736B8C",
"1@	c #534069",
"2@	c #17171D",
"3@	c #274831",
"4@	c #C9C7CD",
"5@	c #C6CBEB",
"6@	c #D8DAED",
"7@	c #E7EAFC",
"8@	c #ACAECE",
"9@	c #EFEEF0",
"0@	c #898193",
"a@	c #A6A6BF",
"b@	c #C3C7E8",
"c@	c #F7F8FC",
"d@	c #9D9DBC",
"e@	c #0D0713",
"f@	c #BBB7BF",
"g@	c #17121E",
"h@	c #74618D",
"i@	c #ACA6B7",
"j@	c #DBD9DD",
"k@	c #F2F4FD",
"l@	c #DEDFE2",
"m@	c #CBCFE3",
"n@	c #B2B7D3",
"o@	c #25202F",
"p@	c #8774A3",
"q@	c #F1F3FD",
"r@	c #707486",
"s@	c #83879C",
"t@	c #488F57",
"u@	c #498C58",
"v@	c #5B506E",
"w@	c #4A3F5A",
"x@	c #291D36",
"y@	c #878687",
"z@	c #909090",
"A@	c #F4F5FE",
"B@	c #838388",
"C@	c #BABDDD",
"D@	c #C1C7E5",
"E@	c #767A8D",
"F@	c #5C886E",
"G@	c #BABFDC",
"                                                                                                                                ",
"                                                                                                                                ",
"                                                                                                                                ",
"                                                                                                                                ",
"                                                                                                                                ",
"                                                                                                                                ",
"                                                                                                                                ",
"                                                                                                                                ",
"                                                                                                                                ",
"                  . +     @                                                                                                     ",
"                # $ % & * = - ;                                                                           > @                   ",
"            - , ' ) ! ~ { ] ^ / (   @                                                           . ( _ : < [ , }                 ",
"          . | 1 2 3 4 5 6 7 8 9 0 a b c                                                   d   . e f g h i j k l m               ",
"          - 0 n o p p p q p r s t u v w .                                               x y z A B C D E F G H I J ;             ",
"            K L p p p p p p p M N r O P Q                                             R S T U V W X p 4 Y p Z `  ...m           ",
"          +.@.#.$.p p p p p p %.q p &.*.S =.                                        =.-.;.>.Y M Z p p p p p p ,.'.).-           ",
"          !.).~.{.%.p p p p p p p p p >.P ].c > ^.                          . /.  (._.P :.q p %.p p p p p p p p <.[.            ",
"            }.|.1.2.3.4.p p p p p p p 5.6.P 7.8.9.}.                      - 0.0 a.b.P c.Y p p p p p p p p p %.M d.e.c           ",
"            f.g.h.i.j.k.l.p p p p p p m.n.o.P p.q.r.s.s.t.u.u.u.u.u.u.      R v.w.P x.y.p p p p p p p z.A.p X B.C.b -           ",
"              . g.R D.E.F.G.,.H.p p p I.J.K.L.M.N.O.P P P P P P P P P s.P.Q.R.S.T.U.V.W.X.p p p p p Y Y.Z.`. +.+x ++            ",
"                ++- > |.@+#+$+%+&+p *+=+-+N.;+>+,+O.r r r r r r r r r r '+O.)+!+~+{+J.]+^+p p H./+%.:.@+(+_+:+| .               ",
"                      c a.- Q <+[+}+|+1+2+3+4+5+6+O.p p p p p p p p p p 7+O.8+5+P 3+9+0+a+Y &.b+c+d+e+f+g+!.h+.                 ",
"                            . i+j+k+l+m+n+p p p p p p p p p p p p p p p p p p p p p o+p+q+r+s+;.t+_ ..u+    @                   ",
"                              c [ . v+P w+p p p p p p p p p p p p p p p p p p p p p P x+y+z+A+t+B+                              ",
"                                  C+P p p p p p p p p p p p p p p p p p p p p p p p p 5 P J /.B+                                ",
"                                  C+P p p p p p p p p p p p p p p p p p p p p p p p p 5 P J                                     ",
"                                  C+P p p p p p p p p p p p p p p p p p p p p p p p p 5 P J                                     ",
"                              x D+l.o p p p p p p p p p p p p p p p p p p p p p p p p 4 o E+D+_                                 ",
"                              t+P $.p p p p p p p p p p p p p p p p p p p p p p p p p p p F+P .                                 ",
"                              t+P $.p p p p p p p p p p p p p p p p p p p p p p p p p p p F+P .                                 ",
"                              t+P $.p p p p p p p p p p p p p p p p p p p p p p p p p p p F+P .                                 ",
"                              t+P $.p p p p p p p p P P p p p p p p p p p p p p p p P G+p F+P .                                 ",
"                              t+P $.p p p p p p p p P P p p p p p p p r 5 p p p p p P G+p F+P .                                 ",
"                              t+P $.p p p p p p p p P P p p p p p p p P k.p p p p p P G+p F+P .                                 ",
"                              t+P $.p p p p p p p p H+H+p p p p p p p P k.p p p p p H+l.p F+P .                                 ",
"                              t+P $.p p p p p p p p p p p p p p p p p P k.p p p p p p p p F+P .                                 ",
"                              t+P I+O.p p p p p p p p p p p p p p P P p L P J+p p p p X.O.K+P .                                 ",
"                              t+P I+O.p p p p p p p p p p p p p p P P p L P J+p p p p X.O.K+P .                                 ",
"                                  C+P O.L+p p p p p p p p p p p p p p p p p p p p p O.M+P J                                     ",
"                                  N+O+P+Q+R+R+R+S+p p p p p p p p p p p p p T+R+R+R+P+U+O+V+                                    ",
"                                      P W+O.O.O.X.p p p p p p p p p p p p p X+O.O.O.P Y+                                        ",
"                                      Z+`+ @.@+@@@#@$@$@$@$@$@$@$@$@$@$@%@#@&@+@ @ @Z+|                                         ",
"                                        . P *@=@-@5+O.O.O.O.O.O.O.O.O.O.;@5+>@=@P P                                             ",
"                                      ,@'@)@!@V.~@{@]@]@]@]@]@]@]@]@]@]@R+^@/@V.P P                                             ",
"                                      P W+O.O.O.O.O.p p p p p p p p p p p p X+O.P P                                             ",
"                                  C+P p p p (@O._@=@p p p p p p p p p p p p p p O.O.P Y+                                        ",
"                              f.@ :@<@p p p [@}@|@1@p p p p p p p p p p p p p p O.O.2@3@@                                       ",
"                              t+P $.p p p p 4@=@5@O.p p p p p p p p p p p p p p O.O.O.M+P J                                     ",
"                              t+P $.p p p p 4@=@6@7@p p p p p p p p p p p p p p 8@8@O.M+P J                                     ",
"                              t+P $.p p p p 4@=@9@p p p p p p p p p p p p p p p =@=@O.M+P J                                     ",
"                              t+P $.p p Y 0@a@b@c@p p p p p p p p p p p p p p p =@=@O.M+P J                                     ",
"                              t+P $.p p 4 =@d@O.X.p p p p p p p p p p p p p p p =@=@O.M+P J                                     ",
"                                  C+P P P P F+p p p p p p p p p p p p p p p p p P P P Y+                                        ",
"                                  C+P P P P F+p p p p p p p p p p p p p p p p p P P P Y+                                        ",
"                                      P e@=@f@p p p p p p p p p p p p p p p X+O.P P                                             ",
"                                      P g@h@i@j@4 p p p p R+k@l@H.j@j@k@k@k@m@n@7.7.                                            ",
"                                      P o@5+p@=@9@p p p p q@O.r@P =@=@O.O.O.s@P                                                 ",
"                                      t@u@v@w@x@y@z@p p p ]@A@B@P C@C@O.D@E@F@t@                                                ",
"                                        . P P P P P p p p p p k.P O.O.O.G@P b                                                   ",
"                                                    P P P P P P P P P P P P b                                                   ",
"                                                    P P P P P P P P P P P P b                                                   ",
"                                                                                                                                ",
"                                                                                                                                ",
"                                                                                                                                "};
