/* XPM */
static char * wall_xpm[] = {
"64 64 9 1",
" 	c #0058ED",
".	c #21110D",
"+	c #347B2C",
"@	c #0640AF",
"#	c #53A03B",
"$	c #114517",
"%	c #503625",
"&	c #755338",
"*	c #342319",
"                                                                ",
"                                                                ",
"                                                                ",
"                                                                ",
"                                                                ",
"                                                                ",
"                                                                ",
"                                                                ",
"                                         ...                    ",
"                       ...     ...      .+++.. ..               ",
"                 ...  .+++...@.+++.@@...++###+.++.              ",
"                .+++..+#+++#+..+###..+##+#####+##+.             ",
"               .++###+###+###+#+#####+##+########+.             ",
"               .+#####################+#########+..             ",
"              .+#################################+..            ",
"             .$++################################+$.            ",
"             .+#################################++$.@           ",
"            .$####################################+$.           ",
"           @.+#####################################+.@          ",
"           .$+######################################$.          ",
"          @.%$+####################################+$.          ",
"          @.%%$+###################################+$.@         ",
"          @.%%$+##################################+$$.@         ",
"          @@.%$++###############################++$$.@@         ",
"           @.$$$+################################+$%.@          ",
"           .%$+###################################+$%.          ",
"           .$++####################################+$.          ",
"          @.$+#####################################+$.@         ",
"          @.$+#####################################+$.@         ",
"          @.$+#####################################+$.@         ",
"          .%$++###################################++$%.         ",
"          .%%$+++###############################+++$%%.         ",
"         @.%&&$+#################################+$&&%.@        ",
"         @.&&$++##################################+$&&.@        ",
"         @.&&$+##################################++$&&.@        ",
"         @.&&$+##################################$$%&&.@        ",
"         @@.%$+###################################+$%.@@        ",
"         @@.%%$$+##################################$$.@@        ",
"          @.%%$+#############################+####+$&%.@        ",
"          @.%&$++##+######+####+#####+####+##++##++$&&.@        ",
"          @.&&%$+##$#####+$+##++####+$###+$#++$+++$%&&.@        ",
"         @@.&&%%$++$+###+$*$++$$+##+$$+#+$$++$$$$$&%%&.@        ",
"         @@.&&%&%$$%$++++$*%$$%&$$++$&$+$$&$$%&&&&&&&%.@        ",
"         @@.&%%&&&&&%$$$$&%%&&&&&%$$&&&$$&&&&&&&&&&&&%.@        ",
"         @@.%%&&&&&&&&&&&&%&&&&&&&&&&&&&&&&&&&&&&%&&&&.@        ",
"         @@.%&&&&&&&&&&&&&&&&&&&&&&&&&&&&&&&&&&&&%&&&&.@        ",
"          @.%&&&&&&&&&&&&&&&&&&&&&&%&&&&&&&&&&&&&%%&&&.@        ",
"          @.%&&&&&&&&&&&&&&&&&&&&&&%&&&&&&&&&&&&&&%&&&.         ",
"          @@.&&&&&&&&&&&&&&&&&&&&&&%&&&&&&&&&&&&&&%&&%.         ",
"           @.&&&&&&&%&&&&&%&&&&&&&&%%&&&&&&%&&&&&&%%%.          ",
"           @@.&&&&&&%&&&&%.&&&&&&&%%.%&&&&&%&&&&&%%%..          ",
"            @@..&&&%..&&...%&&&&....@...&&%..&&&....            ",
"             @@@....@@..@@@.....@@@@@@@@...@@...@@@             ",
"               @@@@@@@@@@@@@@@@@@      @@@@@@@@@@               ",
"                                                                ",
"                                                                ",
"                                                                ",
"                                                                ",
"                                                                ",
"                                                                ",
"                                                                ",
"                                                                ",
"                                                                ",
"                                                                "};
